<svg width="15" height="15" viewBox="0 0 15 15" fill="none" xmlns="http://www.w3.org/2000/svg">
<path d="M0 2.62603C0 1.23423 1.12827 0.105957 2.52007 0.105957H11.6159C13.0076 0.105957 14.1359 1.23423 14.1359 2.62603V12.0763C14.1359 13.4681 13.0076 14.5964 11.6159 14.5964H2.52007C1.12827 14.5964 0 13.4681 0 12.0763V2.62603Z" fill="#111111" fill-opacity="0.7"/>
<path d="M6.05766 2.62598L6.41562 3.3419H9.99523L10.3532 2.62598H6.05766ZM6.41562 3.69986V4.59476C6.41562 4.59476 6.41562 6.56355 8.20543 6.56355C9.99523 6.56355 9.99523 4.59476 9.99523 4.59476V3.69986H6.41562ZM3.54048 4.76372C3.35085 4.76674 3.17016 4.84487 3.03808 4.98098C2.90601 5.11708 2.83333 5.30003 2.83601 5.48966V8.35335C2.83592 8.46061 2.85993 8.56652 2.90628 8.66326C2.95262 8.75999 3.0201 8.84508 3.10375 8.91223C3.18739 8.97937 3.28505 9.02687 3.38952 9.0512C3.49398 9.07554 3.60258 9.07608 3.70729 9.05281L5.6997 8.60894V11.933L9.9086 6.97162C9.80696 6.94026 9.70139 6.92339 9.59503 6.92151H6.77358L4.26785 7.46131V5.48966C4.26921 5.39384 4.25131 5.29871 4.21521 5.20993C4.17912 5.12115 4.12557 5.04052 4.05774 4.97282C3.9899 4.90512 3.90917 4.85172 3.82031 4.81581C3.73146 4.77989 3.6363 4.76218 3.54048 4.76372ZM10.5307 7.43053L6.71058 11.933H10.7112V8.03763C10.7112 7.81283 10.6439 7.60521 10.5307 7.43053Z" fill="white"/>
</svg>
