<svg width="25" height="23" viewBox="0 0 25 23" fill="none" xmlns="http://www.w3.org/2000/svg">
<path d="M23.3696 10.0097V7.42384C23.3696 6.0753 22.2725 4.97819 20.9239 4.97819H17.7692L12.4981 0.292834C12.1893 0.0182739 11.7238 0.0182739 11.4149 0.292834L6.14385 4.97823H4.07607C1.82852 4.97823 0 6.80675 0 9.05431V18.8369C0 21.0845 1.82852 22.913 4.07607 22.913H20.9239C22.2724 22.913 23.3695 21.8159 23.3695 20.4673V17.8815C24.3184 17.5449 25 16.6388 25 15.576V12.3151C25 11.2524 24.3184 10.3463 23.3696 10.0097ZM11.9565 1.99283L15.3151 4.97823H8.598L11.9565 1.99283ZM21.7391 20.4673C21.7391 20.9169 21.3734 21.2826 20.9239 21.2826H4.07607C2.72754 21.2826 1.63042 20.1855 1.63042 18.8369V9.05431C1.63042 7.70577 2.72754 6.60865 4.07607 6.60865H20.9239C21.3734 6.60865 21.7391 6.97438 21.7391 7.42389V9.86954H19.2935C17.0459 9.86954 15.2174 11.6981 15.2174 13.9456C15.2174 16.1932 17.0459 18.0217 19.2935 18.0217H21.7391V20.4673ZM23.3696 15.576C23.3696 16.0255 23.0039 16.3913 22.5543 16.3913H19.2935C17.9449 16.3913 16.8478 15.2942 16.8478 13.9456C16.8478 12.5971 17.9449 11.5 19.2935 11.5H22.5543C23.0039 11.5 23.3696 11.8657 23.3696 12.3152V15.576Z" fill="white"/>
</svg>
