<svg width="30" height="27" viewBox="0 0 30 27" fill="none" xmlns="http://www.w3.org/2000/svg">
<path d="M12.0682 26.8182C11.7126 26.8182 11.3715 26.6769 11.12 26.4254C10.8685 26.174 10.7273 25.8329 10.7273 25.4773C10.7273 25.1216 10.8685 24.7806 11.12 24.5291C11.3715 24.2776 11.7126 24.1364 12.0682 24.1364H23.2424C24.1908 24.1364 25.1003 23.7596 25.7709 23.0891C26.4415 22.4185 26.8182 21.509 26.8182 20.5606V6.25758C26.8182 5.30923 26.4415 4.39972 25.7709 3.72913C25.1003 3.05855 24.1908 2.68182 23.2424 2.68182H12.0682C11.7126 2.68182 11.3715 2.54054 11.12 2.28908C10.8685 2.03761 10.7273 1.69654 10.7273 1.34091C10.7273 0.985278 10.8685 0.644212 11.12 0.392743C11.3715 0.141274 11.7126 0 12.0682 0H23.2424C24.902 0 26.4937 0.659278 27.6672 1.8328C28.8407 3.00633 29.5 4.59796 29.5 6.25758V20.5606C29.5 22.2202 28.8407 23.8119 27.6672 24.9854C26.4937 26.1589 24.902 26.8182 23.2424 26.8182H12.0682ZM12.0521 6.61336C12.1814 6.49383 12.3331 6.40095 12.4983 6.34003C12.6636 6.27911 12.8392 6.25135 13.0152 6.25832C13.1912 6.2653 13.3641 6.30687 13.524 6.38067C13.6839 6.45448 13.8278 6.55906 13.9472 6.68846L19.3109 12.4991C19.5398 12.7468 19.667 13.0718 19.667 13.4091C19.667 13.7464 19.5398 14.0714 19.3109 14.3191L13.9472 20.1297C13.8276 20.259 13.6837 20.3634 13.5237 20.437C13.3637 20.5107 13.1908 20.5521 13.0148 20.5589C12.8389 20.5657 12.6633 20.5378 12.4981 20.4767C12.3329 20.4157 12.1813 20.3227 12.0521 20.203C11.9228 20.0834 11.8184 19.9395 11.7448 19.7795C11.6711 19.6195 11.6297 19.4466 11.6229 19.2706C11.6092 18.9152 11.7372 18.5689 11.9788 18.3079L15.2649 14.7482H1.34091C0.985278 14.7482 0.644212 14.6069 0.392743 14.3555C0.141274 14.104 0 13.7629 0 13.4073C0 13.0517 0.141274 12.7106 0.392743 12.4591C0.644212 12.2077 0.985278 12.0664 1.34091 12.0664H15.2631L11.977 8.50852C11.8575 8.37916 11.7646 8.22753 11.7037 8.06227C11.6427 7.89701 11.615 7.72137 11.622 7.54539C11.6289 7.3694 11.6705 7.1965 11.7443 7.03659C11.8181 6.87667 11.9227 6.73286 12.0521 6.61336Z" fill="white"/>
</svg>
