<svg width="16" height="16" viewBox="0 0 16 16" fill="none" xmlns="http://www.w3.org/2000/svg">
<path opacity="0.2" d="M15.2699 14.2233L11.9324 10.8818C11.8243 10.771 11.7039 10.6729 11.5736 10.5894L10.7393 10.013C12.4555 7.8868 12.4715 4.85386 10.7776 2.70974C9.08384 0.565614 6.13234 -0.117465 3.67052 1.06491C1.2087 2.24728 -0.106413 4.97954 0.503761 7.64411C1.11393 10.3087 3.48655 12.1944 6.21695 12.185C7.54198 12.1853 8.82776 11.7346 9.86318 10.9068L10.489 11.7422C10.5632 11.8498 10.647 11.9504 10.7393 12.0429L14.0768 15.3845C14.1551 15.4635 14.2617 15.508 14.373 15.508C14.4842 15.508 14.5908 15.4635 14.6692 15.3845L15.2532 14.7997C15.4116 14.6428 15.419 14.3891 15.2699 14.2233ZM6.21695 10.5142C3.91289 10.5142 2.04508 8.64413 2.04508 6.33729C2.04508 4.03044 3.91289 2.16038 6.21695 2.16038C8.52102 2.16038 10.3888 4.03044 10.3888 6.33729C10.3888 7.44507 9.9493 8.50748 9.16692 9.2908C8.38454 10.0741 7.32341 10.5142 6.21695 10.5142Z" fill="white"/>
</svg>
