<svg width="25" height="20" viewBox="0 0 25 20" fill="none" xmlns="http://www.w3.org/2000/svg">
<path d="M20.8984 0.274605C21.2656 -0.0915283 21.8594 -0.0915283 22.1914 0.274565L24.6914 2.77421C24.9023 2.95 25 3.18867 25 3.4371C25 3.68593 24.9023 3.92578 24.6914 4.0664L22.1914 6.5664C21.8594 6.96484 21.2656 6.96484 20.8984 6.5664C20.5352 6.23437 20.5352 5.64062 20.8984 5.27343L21.8008 4.33984H15C14.4805 4.33984 14.0625 3.95312 14.0625 3.4371C14.0625 2.91953 14.4805 2.4996 15 2.4996L21.8008 2.46484L20.8984 1.60039C20.5352 1.23437 20.5352 0.64062 20.8984 0.274605V0.274605ZM4.06641 14.6914L3.20078 15.625L9.96484 15.5898C10.5195 15.5898 10.9023 16.043 10.9023 16.5273C10.9023 17.0781 10.5195 17.4648 9.96484 17.4648L3.20117 17.5L4.06641 18.3984C4.46484 18.7656 4.46484 19.3594 4.06641 19.6914C3.73437 20.0898 3.14062 20.0898 2.77461 19.6914L0.27457 17.1914C0.09875 17.0508 -3.90509e-05 16.8125 1.158e-08 16.5273C1.158e-08 16.3125 0.0987891 16.0742 0.274609 15.8984L2.77461 13.3984C3.14062 13.0352 3.73437 13.0352 4.06641 13.3984C4.46484 13.7656 4.46484 14.3594 4.06641 14.6914V14.6914ZM3.71484 2.5H13.1992C13.0508 2.78046 12.9688 3.09921 12.9688 3.40234C12.9688 4.55859 13.8789 5.43359 15 5.43359H18.793C18.9219 6.15234 19.332 6.73828 19.8984 7.10546C19.9648 7.19921 20.043 7.28906 20.125 7.375C20.918 8.16796 22.207 8.16796 23 7.375L23.75 6.62109V15C23.75 16.3789 22.6289 17.5 21.25 17.5H11.8008C11.9492 17.2187 11.9961 16.9023 11.9961 16.5273C11.9961 15.4414 11.1211 14.4961 9.96484 14.4961L6.20703 14.5312C6.07422 13.8477 5.66797 13.2617 5.10156 12.8945C5.03516 12.8008 4.95703 12.7109 4.875 12.625C4.08203 11.832 2.79453 11.832 2.00117 12.625L1.21484 13.3789V5C1.21484 3.61914 2.36914 2.5 3.71484 2.5ZM3.71484 7.5C5.12891 7.5 6.21484 6.3789 6.21484 5H3.71484V7.5ZM21.25 15V12.5C19.8711 12.5 18.75 13.6211 18.75 15H21.25ZM12.4648 13.75C14.5703 13.75 16.25 12.0703 16.25 10C16.25 7.89453 14.5703 6.25 12.4648 6.25C10.3945 6.25 8.71484 7.89453 8.71484 10C8.71484 12.0703 10.3945 13.75 12.4648 13.75Z" fill="white"/>
</svg>
