<svg width="25" height="23" viewBox="0 0 25 23" fill="none" xmlns="http://www.w3.org/2000/svg">
<path opacity="0.9" d="M12.5 11.3636C11.8257 11.3636 11.1666 11.5636 10.606 11.9382C10.0454 12.3128 9.60844 12.8452 9.35041 13.4681C9.09238 14.0911 9.02487 14.7765 9.15641 15.4378C9.28795 16.0991 9.61264 16.7066 10.0894 17.1833C10.5662 17.6601 11.1736 17.9848 11.8349 18.1163C12.4962 18.2479 13.1817 18.1803 13.8046 17.9223C14.4275 17.6643 14.96 17.2273 15.3346 16.6667C15.7092 16.1061 15.9091 15.447 15.9091 14.7727C15.9091 13.8686 15.5499 13.0015 14.9106 12.3621C14.2713 11.7228 13.4041 11.3636 12.5 11.3636ZM12.5 15.9091C12.2752 15.9091 12.0555 15.8424 11.8687 15.7176C11.6818 15.5927 11.5361 15.4152 11.4501 15.2076C11.3641 15 11.3416 14.7715 11.3855 14.551C11.4293 14.3306 11.5375 14.1281 11.6965 13.9692C11.8554 13.8103 12.0579 13.702 12.2783 13.6582C12.4987 13.6144 12.7272 13.6369 12.9349 13.7229C13.1425 13.8089 13.32 13.9545 13.4449 14.1414C13.5697 14.3283 13.6364 14.548 13.6364 14.7727C13.6364 15.0741 13.5166 15.3631 13.3035 15.5763C13.0904 15.7894 12.8014 15.9091 12.5 15.9091ZM11.6932 8.76136C11.8013 8.86482 11.9287 8.94592 12.0682 9C12.2042 9.06012 12.3513 9.09117 12.5 9.09117C12.6487 9.09117 12.7958 9.06012 12.9318 9C13.0713 8.94592 13.1987 8.86482 13.3068 8.76136L15.9091 6.20455C16.1291 5.98454 16.2527 5.68614 16.2527 5.375C16.2527 5.06386 16.1291 4.76546 15.9091 4.54545C15.6891 4.32545 15.3907 4.20185 15.0795 4.20185C14.7684 4.20185 14.47 4.32545 14.25 4.54545L13.6364 5.21591V1.13636C13.6364 0.834981 13.5166 0.545943 13.3035 0.332833C13.0904 0.119724 12.8014 0 12.5 0C12.1986 0 11.9096 0.119724 11.6965 0.332833C11.4834 0.545943 11.3636 0.834981 11.3636 1.13636V5.21591L10.75 4.54545C10.53 4.32545 10.2316 4.20185 9.92045 4.20185C9.60931 4.20185 9.31092 4.32545 9.09091 4.54545C8.8709 4.76546 8.7473 5.06386 8.7473 5.375C8.7473 5.68614 8.8709 5.98454 9.09091 6.20455L11.6932 8.76136ZM20.4545 14.7727C20.4545 14.548 20.3879 14.3283 20.263 14.1414C20.1382 13.9545 19.9607 13.8089 19.753 13.7229C19.5454 13.6369 19.3169 13.6144 19.0965 13.6582C18.8761 13.702 18.6736 13.8103 18.5147 13.9692C18.3557 14.1281 18.2475 14.3306 18.2037 14.551C18.1598 14.7715 18.1823 15 18.2683 15.2076C18.3543 15.4152 18.5 15.5927 18.6869 15.7176C18.8737 15.8424 19.0934 15.9091 19.3182 15.9091C19.6196 15.9091 19.9086 15.7894 20.1217 15.5763C20.3348 15.3631 20.4545 15.0741 20.4545 14.7727ZM21.5909 6.81818H18.1818C17.8804 6.81818 17.5914 6.93791 17.3783 7.15102C17.1652 7.36413 17.0455 7.65316 17.0455 7.95455C17.0455 8.25593 17.1652 8.54497 17.3783 8.75808C17.5914 8.97119 17.8804 9.09091 18.1818 9.09091H21.5909C21.8923 9.09091 22.1813 9.21063 22.3944 9.42374C22.6075 9.63685 22.7273 9.92589 22.7273 10.2273V19.3182C22.7273 19.6196 22.6075 19.9086 22.3944 20.1217C22.1813 20.3348 21.8923 20.4545 21.5909 20.4545H3.40909C3.10771 20.4545 2.81867 20.3348 2.60556 20.1217C2.39245 19.9086 2.27273 19.6196 2.27273 19.3182V10.2273C2.27273 9.92589 2.39245 9.63685 2.60556 9.42374C2.81867 9.21063 3.10771 9.09091 3.40909 9.09091H6.81818C7.11956 9.09091 7.4086 8.97119 7.62171 8.75808C7.83482 8.54497 7.95455 8.25593 7.95455 7.95455C7.95455 7.65316 7.83482 7.36413 7.62171 7.15102C7.4086 6.93791 7.11956 6.81818 6.81818 6.81818H3.40909C2.50494 6.81818 1.63783 7.17735 0.9985 7.81668C0.359171 8.45601 0 9.32313 0 10.2273V19.3182C0 20.2223 0.359171 21.0894 0.9985 21.7288C1.63783 22.3681 2.50494 22.7273 3.40909 22.7273H21.5909C22.4951 22.7273 23.3622 22.3681 24.0015 21.7288C24.6408 21.0894 25 20.2223 25 19.3182V10.2273C25 9.32313 24.6408 8.45601 24.0015 7.81668C23.3622 7.17735 22.4951 6.81818 21.5909 6.81818ZM4.54545 14.7727C4.54545 14.9975 4.6121 15.2172 4.73697 15.4041C4.86183 15.5909 5.03931 15.7366 5.24695 15.8226C5.45459 15.9086 5.68308 15.9311 5.90351 15.8873C6.12394 15.8434 6.32642 15.7352 6.48535 15.5763C6.64427 15.4173 6.7525 15.2149 6.79635 14.9944C6.84019 14.774 6.81769 14.5455 6.73168 14.3379C6.64567 14.1302 6.50002 13.9527 6.31315 13.8279C6.12627 13.703 5.90657 13.6364 5.68182 13.6364C5.38044 13.6364 5.0914 13.7561 4.87829 13.9692C4.66518 14.1823 4.54545 14.4713 4.54545 14.7727Z" fill="white"/>
</svg>
