<svg width="269" height="33" viewBox="0 0 269 33" fill="none" xmlns="http://www.w3.org/2000/svg">
<path d="M24.5748 10.2317L24.635 10.3452L24.7622 10.3624L35.8908 11.8679C35.891 11.8679 35.8912 11.8679 35.8915 11.868C36.5388 11.9578 36.9541 12.5046 36.8619 13.0604L36.8615 13.0634C36.8268 13.2893 36.7119 13.4996 36.5325 13.6633L28.4807 20.9704L28.3776 21.0639L28.4028 21.2008L30.3052 31.5195L30.3053 31.5197C30.4081 32.075 30.0087 32.63 29.3674 32.7329L29.3671 32.733C29.1143 32.7739 28.8516 32.7359 28.6282 32.6252L28.6271 32.6246L18.6725 27.7529L18.5626 27.6992L18.4527 27.7529L8.49808 32.6246L8.49771 32.6248C8.30622 32.7189 8.089 32.7617 7.87103 32.7472C7.65308 32.7328 7.44528 32.6618 7.2711 32.544C7.09705 32.4264 6.96437 32.2674 6.88562 32.0868C6.80696 31.9065 6.78449 31.7103 6.81989 31.5199L6.81995 31.5195L8.72233 21.2008L8.74757 21.0639L8.64448 20.9704L0.592249 13.6629L0.592233 13.6628C0.374657 13.4654 0.254002 13.1997 0.250098 12.9254C0.246197 12.6512 0.35909 12.383 0.570446 12.1806C0.746299 12.0137 0.977724 11.902 1.23305 11.8681L1.23361 11.868L12.363 10.3624L12.4902 10.3452L12.5503 10.2317L17.5248 0.844582C17.5249 0.844352 17.525 0.844122 17.5252 0.843893C17.8052 0.323462 18.5005 0.0952335 19.0806 0.361824L19.0809 0.361952C19.3094 0.466601 19.4907 0.637044 19.5996 0.843117L19.5997 0.843339L24.5748 10.2317Z" stroke="white" fill="#fff" stroke-width="0.5"/>
<path d="M82.3253 10.2317L82.3854 10.3452L82.5127 10.3624L93.6413 11.8679C93.6415 11.8679 93.6417 11.8679 93.6419 11.868C94.2893 11.9578 94.7046 12.5046 94.6124 13.0604L94.612 13.0634C94.5773 13.2893 94.4624 13.4996 94.2829 13.6633L86.2312 20.9704L86.1281 21.0639L86.1533 21.2008L88.0557 31.5195L88.0558 31.5197C88.1586 32.075 87.7592 32.63 87.1179 32.7329L87.1176 32.733C86.8647 32.7739 86.6021 32.7359 86.3787 32.6252L86.3776 32.6246L76.423 27.7529L76.3131 27.6992L76.2032 27.7529L66.2486 32.6246L66.2482 32.6248C66.0567 32.7189 65.8395 32.7617 65.6215 32.7472C65.4036 32.7328 65.1958 32.6618 65.0216 32.544C64.8475 32.4264 64.7149 32.2674 64.6361 32.0868C64.5574 31.9065 64.535 31.7103 64.5704 31.5199L64.5704 31.5195L66.4728 21.2008L66.4981 21.0639L66.395 20.9704L58.3427 13.6629L58.3427 13.6628C58.1251 13.4654 58.0045 13.1997 58.0006 12.9254C57.9967 12.6512 58.1096 12.383 58.3209 12.1806C58.4968 12.0137 58.7282 11.902 58.9835 11.8681L58.9841 11.868L70.1135 10.3624L70.2407 10.3452L70.3008 10.2317L75.2753 0.844582C75.2754 0.844352 75.2755 0.844122 75.2757 0.843893C75.5557 0.323462 76.251 0.0952335 76.8311 0.361824L76.8314 0.361952C77.0599 0.466601 77.2411 0.637044 77.3501 0.843117L77.3502 0.843339L82.3253 10.2317Z" stroke="white" fill="#fff" stroke-width="0.5"/>
<path d="M140.075 10.2317L140.135 10.3452L140.263 10.3624L151.391 11.8679C151.392 11.8679 151.392 11.8679 151.392 11.868C152.039 11.9578 152.455 12.5046 152.362 13.0604L152.362 13.0634C152.327 13.2893 152.212 13.4996 152.033 13.6633L143.981 20.9704L143.878 21.0639L143.903 21.2008L145.806 31.5195L145.806 31.5197C145.909 32.075 145.509 32.63 144.868 32.7329L144.868 32.733C144.615 32.7739 144.352 32.7359 144.129 32.6252L144.128 32.6246L134.173 27.7529L134.063 27.6992L133.953 27.7529L123.999 32.6246L123.998 32.6248C123.807 32.7189 123.589 32.7617 123.372 32.7472C123.154 32.7328 122.946 32.6618 122.772 32.544C122.598 32.4264 122.465 32.2674 122.386 32.0868C122.307 31.9065 122.285 31.7103 122.32 31.5199L122.32 31.5195L124.223 21.2008L124.248 21.0639L124.145 20.9704L116.093 13.6629L116.093 13.6628C115.875 13.4654 115.754 13.1997 115.751 12.9254C115.747 12.6512 115.86 12.383 116.071 12.1806C116.247 12.0137 116.478 11.902 116.734 11.8681L116.734 11.868L127.863 10.3624L127.991 10.3452L128.051 10.2317L133.025 0.844582C133.025 0.844352 133.026 0.844122 133.026 0.843893C133.306 0.323462 134.001 0.0952335 134.581 0.361824L134.581 0.361952C134.81 0.466601 134.991 0.637044 135.1 0.843117L135.1 0.843339L140.075 10.2317Z" stroke="white" fill="#fff" stroke-width="0.5"/>
<path d="M197.824 10.2317L197.884 10.3452L198.011 10.3624L209.14 11.8679C209.14 11.8679 209.14 11.8679 209.14 11.868C209.788 11.9578 210.203 12.5046 210.111 13.0604L210.111 13.0634C210.076 13.2893 209.961 13.4996 209.781 13.6633L201.73 20.9704L201.627 21.0639L201.652 21.2008L203.554 31.5195L203.554 31.5197C203.657 32.075 203.258 32.63 202.616 32.7329L202.616 32.733C202.363 32.7739 202.101 32.7359 201.877 32.6252L201.876 32.6246L191.922 27.7529L191.812 27.6992L191.702 27.7529L181.747 32.6246L181.747 32.6248C181.555 32.7189 181.338 32.7617 181.12 32.7472C180.902 32.7328 180.694 32.6618 180.52 32.544C180.346 32.4264 180.213 32.2674 180.135 32.0868C180.056 31.9065 180.034 31.7103 180.069 31.5199L180.069 31.5195L181.971 21.2008L181.997 21.0639L181.894 20.9704L173.841 13.6629L173.841 13.6628C173.624 13.4654 173.503 13.1997 173.499 12.9254C173.495 12.6512 173.608 12.383 173.819 12.1806C173.995 12.0137 174.227 11.902 174.482 11.8681L174.483 11.868L185.612 10.3624L185.739 10.3452L185.799 10.2317L190.774 0.844582C190.774 0.844352 190.774 0.844122 190.774 0.843893C191.054 0.323462 191.75 0.0952335 192.33 0.361824L192.33 0.361952C192.558 0.466601 192.74 0.637044 192.849 0.843117L192.849 0.843339L197.824 10.2317Z" stroke="white" fill="#fff" stroke-width="0.5"/>
<path d="M255.574 10.2317L255.634 10.3452L255.762 10.3624L266.89 11.8679C266.891 11.8679 266.891 11.8679 266.891 11.868C267.538 11.9578 267.954 12.5046 267.861 13.0604L267.861 13.0634C267.826 13.2893 267.711 13.4996 267.532 13.6633L259.48 20.9704L259.377 21.0639L259.402 21.2008L261.305 31.5195L261.305 31.5197C261.408 32.075 261.008 32.63 260.367 32.7329L260.367 32.733C260.114 32.7739 259.851 32.7359 259.628 32.6252L259.627 32.6246L249.672 27.7529L249.562 27.6992L249.452 27.7529L239.498 32.6246L239.497 32.6248C239.306 32.7189 239.089 32.7617 238.871 32.7472C238.653 32.7328 238.445 32.6618 238.271 32.544C238.097 32.4264 237.964 32.2674 237.885 32.0868C237.806 31.9065 237.784 31.7103 237.819 31.5199L237.819 31.5195L239.722 21.2008L239.747 21.0639L239.644 20.9704L231.592 13.6629L231.592 13.6628C231.374 13.4654 231.254 13.1997 231.25 12.9254C231.246 12.6512 231.359 12.383 231.57 12.1806C231.746 12.0137 231.977 11.902 232.233 11.8681L232.233 11.868L243.362 10.3624L243.49 10.3452L243.55 10.2317L248.524 0.844582C248.524 0.844352 248.525 0.844122 248.525 0.843893C248.805 0.323462 249.5 0.0952335 250.08 0.361824L250.08 0.361952C250.309 0.466601 250.49 0.637044 250.599 0.843117L250.599 0.843339L255.574 10.2317Z" stroke="white" fill="#fff" stroke-width="0.5"/>
</svg>
