<svg width="107" height="39" viewBox="0 0 107 39" fill="none" xmlns="http://www.w3.org/2000/svg">
<path d="M6.78 6.95L5.01 2.15H4.95L3.18 6.95H6.78ZM2.655 8.3L1.755 10.775C1.725 10.855 1.68 10.915 1.62 10.955C1.57 10.985 1.49 11 1.38 11H0.33C0.17 11 0.12 10.925 0.18 10.775L4.08 0.724999C4.12 0.645 4.165 0.59 4.215 0.559999C4.265 0.519999 4.345 0.499999 4.455 0.499999H5.505C5.615 0.499999 5.695 0.519999 5.745 0.559999C5.795 0.59 5.84 0.645 5.88 0.724999L9.78 10.775C9.84 10.925 9.79 11 9.63 11H8.58C8.47 11 8.385 10.985 8.325 10.955C8.275 10.915 8.235 10.855 8.205 10.775L7.305 8.3H2.655ZM19.9418 10.775C19.9418 10.925 19.8668 11 19.7168 11H18.7418C18.5918 11 18.5168 10.925 18.5168 10.775V1.85H15.2168C15.0668 1.85 14.9918 1.775 14.9918 1.625V0.724999C14.9918 0.574999 15.0668 0.499999 15.2168 0.499999H23.2418C23.3918 0.499999 23.4668 0.574999 23.4668 0.724999V1.625C23.4668 1.775 23.3918 1.85 23.2418 1.85H19.9418V10.775ZM35.2771 6.95L33.5071 2.15H33.4471L31.6771 6.95H35.2771ZM31.1521 8.3L30.2521 10.775C30.2221 10.855 30.1771 10.915 30.1171 10.955C30.0671 10.985 29.9871 11 29.8771 11H28.8271C28.6671 11 28.6171 10.925 28.6771 10.775L32.5771 0.724999C32.6171 0.645 32.6621 0.59 32.7121 0.559999C32.7621 0.519999 32.8421 0.499999 32.9521 0.499999H34.0021C34.1121 0.499999 34.1921 0.519999 34.2421 0.559999C34.2921 0.59 34.3371 0.645 34.3771 0.724999L38.2771 10.775C38.3371 10.925 38.2871 11 38.1271 11H37.0771C36.9671 11 36.8821 10.985 36.8221 10.955C36.7721 10.915 36.7321 10.855 36.7021 10.775L35.8021 8.3H31.1521ZM47.758 9.65H53.908C54.058 9.65 54.133 9.725 54.133 9.875V10.775C54.133 10.925 54.058 11 53.908 11H46.558C46.408 11 46.333 10.92 46.333 10.76V0.724999C46.333 0.574999 46.408 0.499999 46.558 0.499999H47.533C47.683 0.499999 47.758 0.574999 47.758 0.724999V9.65ZM69.2777 0.724999C69.2777 0.574999 69.3527 0.499999 69.5027 0.499999H70.4777C70.6277 0.499999 70.7027 0.574999 70.7027 0.724999V10.775C70.7027 10.925 70.6277 11 70.4777 11H69.5027C69.3527 11 69.2777 10.93 69.2777 10.79V6.35H63.7277V10.775C63.7277 10.925 63.6527 11 63.5027 11H62.5277C62.3777 11 62.3027 10.925 62.3027 10.775V0.724999C62.3027 0.574999 62.3777 0.499999 62.5277 0.499999H63.5027C63.6527 0.499999 63.7277 0.574999 63.7277 0.724999V5H69.2777V0.724999ZM79.9242 2.975C79.9242 1.225 80.8242 0.349999 82.6242 0.349999H86.3742C88.1742 0.349999 89.0742 1.225 89.0742 2.975V8.525C89.0742 10.275 88.1742 11.15 86.3742 11.15H82.6242C80.8242 11.15 79.9242 10.275 79.9242 8.525V2.975ZM87.6492 2.975C87.6492 2.125 87.2242 1.7 86.3742 1.7H82.6242C81.7742 1.7 81.3492 2.125 81.3492 2.975V8.525C81.3492 9.375 81.7742 9.8 82.6242 9.8H86.3742C87.2242 9.8 87.6492 9.375 87.6492 8.525V2.975ZM104.825 7.85C104.825 7.59 104.75 7.385 104.6 7.235C104.46 7.075 104.26 6.955 104 6.875L99.4998 5.45C99.0498 5.31 98.6848 5.085 98.4048 4.775C98.1348 4.455 97.9998 4.03 97.9998 3.5V2.975C97.9998 1.225 98.8998 0.349999 100.7 0.349999H103.4C105.2 0.349999 106.1 1.225 106.1 2.975V3.575C106.1 3.725 106.025 3.8 105.875 3.8H104.9C104.75 3.8 104.675 3.725 104.675 3.575V2.975C104.675 2.125 104.25 1.7 103.4 1.7H100.7C99.8498 1.7 99.4248 2.125 99.4248 2.975V3.35C99.4248 3.61 99.4948 3.82 99.6348 3.98C99.7848 4.13 99.9898 4.245 100.25 4.325L104.75 5.75C105.2 5.89 105.56 6.12 105.83 6.44C106.11 6.75 106.25 7.17 106.25 7.7V8.525C106.25 10.275 105.35 11.15 103.55 11.15H100.55C98.7498 11.15 97.8498 10.275 97.8498 8.525V7.925C97.8498 7.775 97.9248 7.7 98.0748 7.7H99.0498C99.1998 7.7 99.2748 7.775 99.2748 7.925V8.525C99.2748 9.375 99.6998 9.8 100.55 9.8H103.55C104.4 9.8 104.825 9.375 104.825 8.525V7.85ZM13.8 30.1C13.8 30.86 13.68 31.46 13.44 31.9C13.2133 32.3267 12.9667 32.6533 12.7 32.88C12.3667 33.1467 12 33.32 11.6 33.4L13.9 37.5C13.98 37.6467 13.9867 37.7667 13.92 37.86C13.8533 37.9533 13.7467 38 13.6 38H11.2C11 38 10.8333 37.9533 10.7 37.86C10.58 37.7667 10.48 37.6467 10.4 37.5L8.3 33.6H4.8V37.5C4.8 37.8333 4.63333 38 4.3 38H2.1C1.76667 38 1.6 37.8333 1.6 37.5V24.5C1.6 24.1667 1.76667 24 2.1 24H10.3C12.6333 24 13.8 25.1667 13.8 27.5V30.1ZM4.8 26.8V30.8H9.5C10.2333 30.8 10.6 30.4333 10.6 29.7V27.9C10.6 27.1667 10.2333 26.8 9.5 26.8H4.8ZM19.6405 35.1L18.7405 37.5C18.6738 37.6467 18.5871 37.7667 18.4805 37.86C18.3871 37.9533 18.2405 38 18.0405 38H15.5405C15.2071 38 15.1071 37.8333 15.2405 37.5L20.1405 24.5C20.2738 24.1667 20.5405 24 20.9405 24H23.8405C24.0405 24 24.1871 24.0467 24.2805 24.14C24.3871 24.2333 24.4738 24.3533 24.5405 24.5L29.4405 37.5C29.5738 37.8333 29.4738 38 29.1405 38H26.6405C26.4405 38 26.2871 37.9533 26.1805 37.86C26.0871 37.7667 26.0071 37.6467 25.9405 37.5L25.0405 35.1H19.6405ZM24.0405 32.3L22.4405 28H22.2405L20.6405 32.3H24.0405ZM23.7405 22.1C23.6338 22.2467 23.5271 22.3667 23.4205 22.46C23.3138 22.5533 23.1871 22.6 23.0405 22.6H21.8405C21.5071 22.6 21.4071 22.4333 21.5405 22.1L22.5405 19.5C22.6071 19.3533 22.6871 19.2333 22.7805 19.14C22.8871 19.0467 23.0405 19 23.2405 19H25.1405C25.2871 19 25.4005 19.0467 25.4805 19.14C25.5605 19.2333 25.5471 19.3533 25.4405 19.5L23.7405 22.1ZM34.507 33.9V37.5C34.507 37.8333 34.3404 38 34.007 38H31.807C31.4737 38 31.307 37.8333 31.307 37.5V24.5C31.307 24.1667 31.4737 24 31.807 24H40.007C42.3404 24 43.507 25.1667 43.507 27.5V30.4C43.507 32.7333 42.3404 33.9 40.007 33.9H34.507ZM34.507 26.8V31.1H39.207C39.9404 31.1 40.307 30.7333 40.307 30V27.9C40.307 27.1667 39.9404 26.8 39.207 26.8H34.507ZM49.507 37.5C49.507 37.8333 49.3404 38 49.007 38H46.807C46.4737 38 46.307 37.8333 46.307 37.5V24.5C46.307 24.1667 46.4737 24 46.807 24H49.007C49.3404 24 49.507 24.1667 49.507 24.5V37.5ZM62.0133 24C64.3466 24 65.5133 25.1667 65.5133 27.5V34.5C65.5133 36.8333 64.3466 38 62.0133 38H53.2133C52.8799 38 52.7133 37.8333 52.7133 37.5V24.5C52.7133 24.1667 52.8799 24 53.2133 24H62.0133ZM55.9133 35.2H61.2133C61.9466 35.2 62.3133 34.8333 62.3133 34.1V27.9C62.3133 27.1667 61.9466 26.8 61.2133 26.8H55.9133V35.2ZM81.4141 34.7C81.4141 37.0333 80.2474 38.2 77.9141 38.2H71.8141C69.4807 38.2 68.3141 37.0333 68.3141 34.7V27.3C68.3141 24.9667 69.4807 23.8 71.8141 23.8H77.9141C80.2474 23.8 81.4141 24.9667 81.4141 27.3V34.7ZM78.2141 27.7C78.2141 26.9667 77.8474 26.6 77.1141 26.6H72.6141C71.8807 26.6 71.5141 26.9667 71.5141 27.7V34.3C71.5141 35.0333 71.8807 35.4 72.6141 35.4H77.1141C77.8474 35.4 78.2141 35.0333 78.2141 34.3V27.7ZM92.9125 33.9C92.9125 33.42 92.6125 33.0867 92.0125 32.9L86.5125 31.2C85.7125 30.9467 85.1125 30.6 84.7125 30.16C84.3125 29.7067 84.1125 29.0533 84.1125 28.2V27.3C84.1125 24.9667 85.2792 23.8 87.6125 23.8H92.4125C94.7458 23.8 95.9125 24.9667 95.9125 27.3V28.3C95.9125 28.6333 95.7458 28.8 95.4125 28.8H93.2125C92.8792 28.8 92.7125 28.6333 92.7125 28.3V27.7C92.7125 26.9667 92.3458 26.6 91.6125 26.6H88.4125C87.6792 26.6 87.3125 26.9667 87.3125 27.7V27.9C87.3125 28.3933 87.6125 28.7267 88.2125 28.9L93.7125 30.6C94.5125 30.8533 95.1125 31.2067 95.5125 31.66C95.9125 32.1 96.1125 32.7467 96.1125 33.6V34.7C96.1125 37.0333 94.9458 38.2 92.6125 38.2H87.3125C84.9792 38.2 83.8125 37.0333 83.8125 34.7V33.7C83.8125 33.3667 83.9792 33.2 84.3125 33.2H86.5125C86.8458 33.2 87.0125 33.3667 87.0125 33.7V34.3C87.0125 35.0333 87.3792 35.4 88.1125 35.4H91.8125C92.5458 35.4 92.9125 35.0333 92.9125 34.3V33.9Z" fill="white"/>
</svg>
