<svg width="14" height="15" viewBox="0 0 14 15" fill="none" xmlns="http://www.w3.org/2000/svg">
<path fill-rule="evenodd" clip-rule="evenodd" d="M13.15 3.74754L10.7525 1.35003C10.207 0.805172 9.46739 0.499396 8.69642 0.500001H5.30358C4.53261 0.499396 3.793 0.805172 3.24754 1.35003L0.850028 3.74754C0.305173 4.293 -0.000603623 5.03261 8.94638e-07 5.80358V9.19642C0.00132038 9.96487 0.306951 10.7015 0.850028 11.2452L3.24754 13.65C3.793 14.1948 4.53261 14.5006 5.30358 14.5H8.69642C9.46739 14.5006 10.207 14.1948 10.7525 13.65L13.15 11.2452C13.6931 10.7015 13.9987 9.96487 14 9.19642V5.80358C14.0006 5.03261 13.6948 4.293 13.15 3.74754ZM6.45152 5.05477C6.45152 4.8601 6.55537 4.68022 6.72396 4.58288C6.89255 4.48555 7.10026 4.48555 7.26885 4.58288C7.43744 4.68022 7.5413 4.8601 7.5413 5.05477V7.30697C7.5413 7.60791 7.29734 7.85186 6.99641 7.85186C6.69547 7.85186 6.45152 7.60791 6.45152 7.30697V5.05477ZM7.00445 9.95857C7.30538 9.95857 7.54934 9.71462 7.54934 9.41369C7.54934 9.11275 7.30538 8.8688 7.00445 8.8688C6.70351 8.8688 6.45956 9.11275 6.45956 9.41369C6.45956 9.71462 6.70351 9.95857 7.00445 9.95857Z" fill="white"/>
</svg>
