<svg width="14" height="13" viewBox="0 0 14 13" fill="none" xmlns="http://www.w3.org/2000/svg">
<path d="M1.35394 0.0660734L1.45424 0.137753L1.34027 0.285596C1.26733 0.379677 1.21262 0.523039 1.19439 0.65744L1.17159 0.876964L1.57276 1.17713C1.97849 1.47729 1.97849 1.47729 2.22922 1.45489C2.36598 1.44593 2.51186 1.42353 2.54833 1.41009C2.59392 1.39217 2.83553 1.54001 3.22302 1.82226C3.69257 2.16274 3.85213 2.25682 3.93874 2.2389C4.25786 2.18066 5.49783 3.00051 5.4568 3.24243C5.44313 3.31859 5.47048 3.32755 5.67106 3.31411C5.89444 3.30067 5.90812 3.30515 6.24546 3.5874C6.43693 3.74868 6.64207 3.93684 6.70134 4.00852C6.7606 4.08469 7.32132 4.51029 7.95043 4.96278C10.3802 6.71896 10.2754 6.62936 10.1751 6.89368C10.1341 6.99672 10.1341 7.05496 10.1842 7.14904C10.2161 7.21625 10.2754 7.34169 10.3119 7.43129C10.3483 7.51641 10.4532 7.64633 10.5489 7.72249C10.6401 7.79417 10.8315 7.96442 10.9729 8.09882C11.1187 8.2377 11.4333 8.50202 11.6749 8.69018C12.1673 9.07995 12.459 9.41147 12.9514 10.1596C13.1383 10.4419 13.4483 10.9123 13.6443 11.2035C13.8494 11.5037 13.9999 11.7814 13.9999 11.8441C14.0044 12.0054 13.895 12.095 13.4756 12.3101C13.2705 12.4131 12.9514 12.6102 12.769 12.7491C12.5137 12.9418 12.3952 13 12.2767 13C11.9803 13 11.9028 12.8746 11.1871 11.2573C10.7404 10.2492 10.0019 8.61402 9.9198 8.45722C9.8423 8.3049 9.5004 8.24218 9.37275 8.35866C9.23599 8.47962 9.15849 8.6633 9.08555 9.03067C9.04908 9.21883 8.99894 9.44283 8.97158 9.519C8.8485 9.89084 8.41542 9.95804 8.07351 9.6534C7.94587 9.53692 7.94587 9.45627 8.08263 9.06651C8.14189 8.89179 8.20116 8.60506 8.21939 8.43034L8.24675 8.11226L8.06896 7.99578C7.61764 7.70457 7.38515 7.39545 7.38059 7.09976C7.38059 7.02808 7.36691 6.9788 7.34412 6.98776C7.32588 6.99672 7.16633 7.07736 6.98854 7.16696C6.19532 7.57017 5.17416 7.82105 4.23506 7.83449C3.3689 7.85241 3.36434 7.84793 3.3917 7.15352C3.40081 6.88024 3.43272 6.63384 3.45552 6.60248C3.48743 6.56216 3.71081 6.53528 4.11198 6.51736C4.72285 6.486 5.16048 6.40535 5.66195 6.21719C5.93091 6.11863 6.28649 5.83191 6.28193 5.71991C6.28193 5.68407 6.01297 5.46454 5.68018 5.23158C5.33372 4.98518 4.87784 4.60885 4.60432 4.33557C4.33991 4.07572 3.98889 3.76212 3.82478 3.63668C3.66522 3.51572 3.47831 3.34099 3.41449 3.25139C3.27773 3.05427 2.06055 2.16722 1.94202 2.17618C1.89643 2.17618 1.84173 2.13586 1.81437 2.0821C1.77791 2.00594 0.79322 1.24433 0.492343 1.06065C0.460432 1.04273 0.428521 0.975525 0.428521 0.912804C0.423963 0.827682 0.36014 0.756001 0.209702 0.64848L0 0.500639L0.113969 0.357277L0.227937 0.213915L0.405727 0.330397L0.578959 0.446877L0.784102 0.357277C0.893512 0.307996 1.03027 0.204955 1.08498 0.128794C1.19895 -0.0280085 1.21262 -0.0324879 1.35394 0.0660734ZM0.679252 0.500639C0.679252 0.549919 0.765867 0.56784 0.79322 0.527519C0.806895 0.505118 0.788661 0.482718 0.752191 0.482718C0.711163 0.482718 0.679252 0.491678 0.679252 0.500639ZM0.998363 0.756001C0.998363 0.778402 1.0166 0.796323 1.04395 0.796323C1.06674 0.796323 1.08954 0.764962 1.08954 0.724642C1.08954 0.688801 1.06674 0.67088 1.04395 0.684321C1.0166 0.697762 0.998363 0.729121 0.998363 0.756001ZM0.816013 1.17265C0.816013 1.19057 1.54085 1.71921 1.67761 1.79986C1.71864 1.82674 1.73232 1.82226 1.7232 1.78642C1.68217 1.66545 0.816013 1.07857 0.816013 1.17265ZM2.53465 1.79986C2.50274 1.88498 3.21846 2.3957 3.28229 2.33298C3.3142 2.30162 3.20023 2.1941 2.95406 2.01042C2.74436 1.86258 2.57113 1.73713 2.56657 1.73713C2.56201 1.73713 2.54833 1.76402 2.53465 1.79986ZM2.69421 2.54803C3.28685 2.97363 3.35067 3.01843 3.37802 2.97363C3.40081 2.94227 2.20643 2.09554 2.13805 2.09554C2.10158 2.09554 2.35231 2.29714 2.69421 2.54803ZM3.42361 2.51218C3.49199 2.57043 3.53302 2.57939 3.56949 2.54354C3.60596 2.5077 3.58772 2.47186 3.50566 2.40914C3.35979 2.30162 3.27773 2.3957 3.42361 2.51218ZM7.65411 7.10424C7.65867 7.34169 7.78176 7.53433 8.05984 7.74041C8.19204 7.83897 8.31513 7.91961 8.33336 7.91513C8.34704 7.91513 8.4063 7.85689 8.46556 7.78521L8.57042 7.65529L8.41998 7.67769C8.32424 7.69561 8.23763 7.67769 8.17836 7.63289C8.08719 7.56569 8.09175 7.56569 8.20572 7.56121C8.2741 7.56121 8.3516 7.52985 8.38351 7.49401C8.4291 7.43577 8.41998 7.40889 8.31057 7.32377C7.99602 7.08184 7.71793 6.89816 7.68602 6.92056C7.66779 6.92952 7.65411 7.01464 7.65411 7.10424Z" fill="white"/>
</svg>
