<svg width="12" height="12" viewBox="0 0 12 12" fill="none" xmlns="http://www.w3.org/2000/svg">
<path d="M2.99047 0.0143967C2.99047 0.0290241 2.97584 0.0322742 2.73856 0.0647793C2.66705 0.0761557 2.60041 0.0907831 2.58903 0.100535C2.57766 0.108662 2.5614 0.111912 2.55328 0.105411C2.54353 0.100535 2.51915 0.107036 2.49802 0.121663C2.47689 0.134665 2.45576 0.142792 2.45251 0.137916C2.44764 0.134665 2.394 0.149293 2.33062 0.172047C2.26886 0.194799 2.19735 0.219178 2.16972 0.227304C2.08683 0.251684 2.00394 0.284189 1.98119 0.302067C1.96819 0.311818 1.88205 0.358951 1.78778 0.406083C1.69352 0.453216 1.60575 0.501973 1.59113 0.51335C1.57812 0.526352 1.56187 0.536103 1.55537 0.536103C1.53262 0.536103 1.30346 0.698629 1.14093 0.831901C0.973528 0.968422 0.666355 1.28697 0.666355 1.32273C0.666355 1.33085 0.646852 1.36011 0.622473 1.39099C0.508705 1.52751 0.466448 1.59902 0.329927 1.87694C0.260041 2.01509 0.248664 2.04434 0.235662 2.09635C0.230786 2.1191 0.216159 2.16298 0.204782 2.19386C0.134896 2.38239 0.102391 2.50266 0.0780123 2.67332C0.0682608 2.73507 0.056884 2.79846 0.0520082 2.81146C0.0487577 2.82446 0.0438819 2.86347 0.0422567 2.89598C0.0406314 2.92848 0.0308799 2.96586 0.0211283 2.97724C0.00487577 2.99187 0 3.11051 0 3.45506C0 3.84838 0.00325051 3.91501 0.0260041 3.93289C0.0422567 3.94752 0.0503829 3.98165 0.0487577 4.04503C0.0471324 4.16205 0.0780123 4.42047 0.0958901 4.4546C0.104016 4.46922 0.117018 4.53423 0.123519 4.59762C0.128395 4.661 0.139772 4.71789 0.147898 4.72114C0.154399 4.72601 0.165776 4.77965 0.170652 4.83978C0.177153 4.89992 0.18853 4.95517 0.195031 4.96493C0.201532 4.97305 0.216159 5.03644 0.225911 5.10307C0.237287 5.16971 0.251915 5.23147 0.260041 5.23959C0.269792 5.24935 0.276294 5.28023 0.276294 5.30786C0.276294 5.33711 0.282795 5.36474 0.290921 5.36962C0.299047 5.37612 0.313674 5.433 0.325051 5.49801C0.334803 5.5614 0.34943 5.62803 0.357556 5.64266C0.367308 5.65891 0.373809 5.69142 0.373809 5.71742C0.373809 5.7418 0.38031 5.76943 0.390061 5.77918C0.398188 5.78731 0.41444 5.85232 0.424192 5.92383C0.433943 5.99534 0.446945 6.06035 0.451821 6.0701C0.464823 6.08798 0.495703 6.21962 0.521707 6.35452C0.531459 6.40328 0.544461 6.45854 0.552587 6.47641C0.560713 6.49429 0.570465 6.53817 0.575341 6.57393C0.580216 6.60969 0.588343 6.65682 0.593218 6.67957C0.598094 6.70233 0.611096 6.80147 0.622473 6.90223C0.632225 7.00137 0.646852 7.08914 0.654978 7.09564C0.672856 7.11352 0.669605 7.27767 0.650102 7.28904C0.640351 7.29392 0.63385 7.3443 0.632225 7.39956C0.630599 7.50683 0.611096 7.65147 0.56884 7.8335C0.560713 7.87414 0.544461 7.95377 0.534709 8.01228C0.524958 8.07079 0.505455 8.14555 0.494078 8.17968C0.481076 8.21219 0.471324 8.2642 0.471324 8.29345C0.471324 8.32271 0.464823 8.35359 0.456697 8.36171C0.448571 8.37146 0.433943 8.44785 0.422567 8.53236C0.412815 8.61688 0.398188 8.69326 0.391687 8.70302C0.38356 8.71114 0.372184 8.7599 0.367308 8.80866C0.354306 8.93055 0.34943 8.95656 0.334803 9.00044C0.328302 9.02319 0.329927 9.04594 0.339678 9.05895C0.34943 9.07195 0.352681 9.09308 0.347805 9.1077C0.341304 9.12396 0.344554 9.15159 0.352681 9.17109C0.416066 9.30924 0.438819 9.35149 0.489202 9.41163C0.520082 9.45063 0.576966 9.51239 0.617597 9.5514C0.934522 9.85695 1.07917 9.98859 1.10517 9.99834C1.12305 10.0048 1.13768 10.0195 1.13768 10.0308C1.13768 10.0601 1.3002 10.2161 1.62526 10.5005C1.86904 10.7135 1.93243 10.7655 2.01369 10.8158C2.02832 10.8256 2.05757 10.8484 2.08033 10.8679C2.20222 10.9751 2.31762 11.0678 2.33062 11.0678C2.33712 11.0678 2.37125 11.0905 2.40538 11.1165C2.49477 11.1864 2.61504 11.2693 2.6898 11.3099C2.72555 11.3294 2.78406 11.3636 2.81982 11.3847C2.88483 11.4253 3.29602 11.6317 3.35615 11.6545C3.37403 11.661 3.43579 11.6837 3.4943 11.7032C3.55281 11.7227 3.60807 11.7439 3.61619 11.7504C3.62595 11.7585 3.67308 11.7715 3.72184 11.7829C3.77059 11.7926 3.86323 11.8121 3.92499 11.8251C4.15253 11.8739 4.18828 11.8788 4.34268 11.8788C4.42882 11.8804 4.50521 11.8869 4.51009 11.8966C4.52309 11.9161 4.69211 11.9178 4.70349 11.8983C4.70837 11.8918 4.77988 11.8804 4.86277 11.8739C4.94565 11.8674 5.02042 11.856 5.03017 11.8495C5.03829 11.8414 5.08055 11.8316 5.12281 11.8268C5.16506 11.8203 5.21382 11.8089 5.22845 11.8008C5.2447 11.7926 5.31946 11.765 5.39585 11.7406C5.53237 11.6984 5.63314 11.6496 5.76153 11.57C5.79729 11.5472 5.83792 11.5228 5.85092 11.518C5.87368 11.5066 5.90456 11.4871 6.10121 11.3571C6.15972 11.3164 6.21335 11.2628 6.25399 11.2027L6.31412 11.1084V10.9036C6.31412 10.7768 6.30762 10.6907 6.29624 10.6761C6.28649 10.6631 6.27186 10.6257 6.26699 10.5899C6.26049 10.5558 6.24911 10.5152 6.24261 10.5005C6.1906 10.3949 6.18735 10.1999 6.23773 10.1251C6.25236 10.1024 6.27186 10.0699 6.28161 10.052C6.29137 10.0341 6.31574 10.0113 6.3385 9.99997C6.41651 9.96096 6.79194 9.5839 6.86183 9.47339C6.93172 9.3645 7.08612 9.04757 7.08612 9.01344C7.08612 9.00044 7.09262 8.98418 7.10237 8.97931C7.1105 8.97443 7.12675 8.93868 7.1365 8.9013C7.14625 8.86392 7.16738 8.80541 7.18363 8.76803C7.19988 8.73227 7.22101 8.65913 7.23239 8.6055C7.25839 8.47385 7.28602 8.38609 7.30065 8.38609C7.30878 8.38609 7.31365 8.36984 7.31365 8.35034C7.31365 8.30483 7.34616 8.12768 7.36241 8.08542C7.36891 8.06754 7.39166 8.00091 7.41117 7.93915C7.42905 7.87576 7.4518 7.81075 7.4583 7.79287C7.51681 7.64822 7.55907 7.55396 7.64358 7.37843C7.69721 7.26629 7.74597 7.16065 7.7541 7.14277C7.80448 7.02413 7.83211 6.93636 7.84186 6.86323C7.84836 6.81609 7.85974 6.77384 7.86786 6.76734C7.87599 6.76246 7.88249 6.73808 7.88249 6.71208C7.88249 6.68607 7.88899 6.66169 7.89549 6.65682C7.90362 6.65194 7.90687 6.62756 7.90199 6.60156C7.89874 6.57556 7.90362 6.54793 7.91337 6.54305C7.93613 6.52842 7.93775 6.18224 7.915 6.16762C7.90687 6.16274 7.89874 6.12698 7.89874 6.0896C7.89712 6.05222 7.89062 5.98884 7.88087 5.94821C7.83373 5.7353 7.81586 5.64428 7.81098 5.6069C7.80936 5.58415 7.80285 5.55489 7.79635 5.54189C7.75247 5.42812 7.75735 4.98768 7.80448 4.92917C7.81261 4.91779 7.81586 4.90154 7.81098 4.89342C7.80448 4.88366 7.80773 4.86416 7.81586 4.84791C7.82398 4.83166 7.84674 4.76665 7.86624 4.70489C7.88574 4.6415 7.90687 4.57649 7.915 4.55861C7.93613 4.51148 7.97026 4.38308 7.96538 4.36521C7.96375 4.35708 7.97351 4.3392 7.98813 4.32295C8.04177 4.26444 8.06615 3.89713 8.02876 3.70535C8.01901 3.6566 8.00926 3.60134 8.00764 3.58183C8.00601 3.56396 7.99463 3.53633 7.98326 3.5217C7.97026 3.50707 7.96538 3.48757 7.97188 3.47782C7.97838 3.46807 7.97513 3.45181 7.96701 3.44044C7.95888 3.42906 7.94263 3.3803 7.93125 3.33154C7.91987 3.28279 7.90037 3.22753 7.88737 3.20802C7.87599 3.19015 7.86949 3.17064 7.87437 3.16577C7.87924 3.16089 7.87274 3.13651 7.85811 3.11051C7.84511 3.08451 7.83373 3.05363 7.83373 3.04225C7.83373 3.02275 7.7866 2.89598 7.74922 2.81634C7.72972 2.77571 7.75897 2.68307 7.79148 2.67819C7.80123 2.67819 8.41232 2.67494 9.15019 2.67494L10.491 2.67332L10.7023 2.56767C10.8193 2.51079 10.9575 2.43765 11.0111 2.40515C11.0647 2.37427 11.1314 2.33526 11.1574 2.32063C11.185 2.30438 11.2516 2.27025 11.3053 2.24425C11.3605 2.21824 11.4109 2.18899 11.4158 2.17924C11.4223 2.16949 11.4629 2.14673 11.5068 2.12723C11.6043 2.08497 11.6255 2.03947 11.5702 1.99721C11.5491 1.98096 11.4613 1.93707 11.3768 1.89969C11.2923 1.86231 11.2159 1.82656 11.2061 1.82006C11.198 1.81355 11.172 1.80218 11.1493 1.79568C11.0972 1.78105 10.8713 1.68191 10.7738 1.63153C10.7316 1.6104 10.6844 1.59252 10.6682 1.59252C10.6503 1.59252 10.6162 1.57789 10.5885 1.56001C10.5625 1.54214 10.5219 1.52751 10.4992 1.52751C10.4748 1.52751 10.4471 1.51776 10.4374 1.50638C10.4211 1.49175 10.3122 1.48525 10.0311 1.482C9.8198 1.47875 9.63939 1.47063 9.62964 1.46087C9.61014 1.44137 9.39886 1.44137 9.38585 1.4625C9.37935 1.47225 9.15019 1.47875 8.752 1.47875C8.35382 1.47875 8.12465 1.47225 8.11815 1.4625C8.11165 1.45275 7.87762 1.44625 7.4713 1.44625C7.06174 1.44625 6.81145 1.43975 6.76919 1.42837C6.71718 1.41374 6.6538 1.36173 6.46852 1.17808C6.23123 0.944043 6.12559 0.853028 6.00532 0.779892C5.96957 0.758763 5.91431 0.719757 5.8818 0.693753C5.81029 0.638494 5.77453 0.617367 5.54862 0.505223C5.45111 0.458092 5.33897 0.401207 5.29833 0.381704C5.2317 0.347574 5.16344 0.321569 4.96028 0.250058C4.92128 0.235431 4.88552 0.22893 4.87902 0.233806C4.87414 0.238682 4.85789 0.233806 4.84489 0.220804C4.81888 0.196425 4.62223 0.144417 4.56047 0.144417C4.54422 0.144417 4.51009 0.134665 4.48571 0.121663C4.46133 0.108662 4.4272 0.0989094 4.41094 0.0972843C4.33293 0.0956593 4.10052 0.0599031 4.07614 0.0469017C4.05989 0.0387754 4.00788 0.0322742 3.95912 0.0322742C3.91037 0.0322742 3.86486 0.024148 3.85998 0.0160217C3.84698 -0.00510693 2.99047 -0.00673199 2.99047 0.0143967ZM3.01322 0.791268C3.02135 0.922915 3.02623 0.958671 3.04736 1.0188C3.05711 1.05131 3.07011 1.05619 3.15462 1.05619C3.20663 1.05619 3.25214 1.04968 3.25701 1.04156C3.26189 1.03506 3.31715 1.02368 3.37891 1.0188C3.44229 1.01393 3.5073 1.00093 3.52518 0.992801C3.54306 0.983049 3.61619 0.973297 3.68933 0.970047C3.8161 0.966797 3.82423 0.968422 3.85836 1.01068C3.87786 1.03506 3.90224 1.09682 3.91524 1.14882C3.92662 1.20083 3.94937 1.27234 3.96562 1.3081C3.98188 1.34386 3.99976 1.39424 4.00626 1.42024C4.01763 1.47063 4.18341 1.64778 4.24517 1.67378C4.26467 1.68191 4.3118 1.70791 4.34756 1.73067C4.38332 1.75342 4.43695 1.78267 4.4662 1.79893C4.49383 1.81355 4.51821 1.83143 4.51821 1.83793C4.51821 1.84443 4.55722 1.86881 4.60435 1.89319C4.71649 1.9517 4.77825 2.01184 4.77825 2.06222C4.77825 2.1061 4.72624 2.16136 4.48246 2.3889C4.4207 2.44578 4.37194 2.50104 4.37194 2.51404C4.37194 2.52704 4.38982 2.55305 4.41094 2.57255C4.59622 2.74645 4.71324 2.86997 4.71324 2.89272C4.71324 2.94148 4.64498 2.98862 4.5751 2.98862C4.53934 2.98862 4.45483 2.99674 4.38819 3.00649C4.32156 3.01624 4.24842 3.026 4.22567 3.02925C4.09565 3.0455 4.07939 3.078 4.07939 3.32017C4.07939 3.44206 4.07289 3.51032 4.05989 3.52332C4.03714 3.54608 3.90712 3.54933 3.89411 3.5282C3.88274 3.51195 3.79822 3.4957 3.68933 3.48919C3.58369 3.48269 3.4943 3.52983 3.43742 3.62247C3.3334 3.79637 3.20175 3.93126 3.12537 3.94264C3.08474 3.94914 3.05711 3.93126 2.91733 3.80287C2.75481 3.6566 2.62154 3.57533 2.5419 3.57533C2.51102 3.57533 2.46226 3.61109 2.36962 3.69723C2.29324 3.77036 2.2266 3.81912 2.20547 3.81912C2.15997 3.81912 2.08033 3.74111 2.08033 3.6956C2.08033 3.67447 2.07383 3.65335 2.06408 3.64847C2.05595 3.64359 2.04782 3.62247 2.04945 3.60296C2.04945 3.54283 2.03482 3.47457 2.01857 3.45831C2.00882 3.44856 2.00557 3.43231 2.00882 3.42093C2.01369 3.40956 2.01044 3.39493 2.00069 3.38843C1.99094 3.38355 1.98281 3.3543 1.98281 3.32504C1.98281 3.29579 1.97144 3.25841 1.95843 3.24053C1.94543 3.22428 1.93405 3.1869 1.93405 3.16089C1.93405 3.13326 1.92268 3.09751 1.90805 3.07963C1.88855 3.05363 1.8788 3.05037 1.85279 3.06825C1.83491 3.078 1.80241 3.08776 1.77966 3.08776C1.72277 3.08776 1.69514 3.02437 1.68214 2.86022C1.67564 2.78383 1.66264 2.71395 1.65614 2.7042C1.64801 2.69444 1.64476 2.67494 1.64963 2.66194C1.66101 2.63106 1.57975 2.55792 1.51961 2.54492C1.49361 2.53842 1.44648 2.53354 1.4156 2.53517C1.38634 2.53517 1.35384 2.52867 1.34246 2.52054C1.33271 2.51241 1.27258 2.49779 1.21082 2.48804C1.14743 2.47828 1.0808 2.46853 1.06129 2.46528C1.00766 2.45553 0.975154 2.42303 0.975154 2.37914C0.975154 2.33364 1.01253 2.30601 1.15393 2.25237C1.31808 2.19061 1.46923 2.1061 1.49524 2.05897C1.51311 2.02646 1.51474 2.00859 1.50011 1.97933C1.49036 1.9582 1.4481 1.86881 1.40422 1.77942C1.35384 1.67378 1.32621 1.59415 1.32621 1.55189C1.32458 1.49338 1.32946 1.48525 1.38797 1.45762C1.43835 1.43324 1.47248 1.42999 1.55862 1.43812C1.61713 1.443 1.7439 1.45112 1.83979 1.456L2.01532 1.46412L2.04782 1.41049C2.0657 1.38124 2.08033 1.33248 2.08033 1.30322C2.08033 1.27397 2.08683 1.23821 2.09495 1.22196C2.10308 1.20733 2.11771 1.15045 2.12746 1.09682C2.15509 0.944043 2.25098 0.883908 2.35337 0.957045C2.42488 1.0058 2.56465 1.07244 2.59878 1.07244C2.62966 1.07244 2.73043 0.961921 2.73043 0.927791C2.73043 0.919664 2.75318 0.885533 2.77919 0.856279C2.80682 0.825399 2.82795 0.794519 2.82795 0.789643C2.82795 0.783142 2.84745 0.752263 2.8702 0.721383C2.90108 0.682377 2.92546 0.666124 2.95797 0.666124C3.00347 0.666124 3.00347 0.667749 3.01322 0.791268ZM5.35359 4.01253C5.35847 4.01903 5.39748 4.0304 5.43973 4.03691C5.50962 4.04503 5.58113 4.07104 5.65589 4.11329C5.66889 4.12142 5.69815 4.13605 5.71928 4.14417C5.7404 4.15392 5.81842 4.22218 5.89318 4.29532C6.01507 4.41884 6.02807 4.43672 6.03783 4.50985C6.0427 4.55536 6.0557 4.60737 6.06546 4.6285C6.08008 4.65613 6.08008 4.66913 6.06546 4.68376C6.05408 4.69513 6.04595 4.72601 6.04595 4.75527C6.04595 4.85928 5.83792 5.07219 5.65102 5.15833C5.40885 5.27047 5.39585 5.27373 5.09518 5.27373C4.86439 5.27373 4.80588 5.26885 4.73762 5.24285C4.57672 5.18271 4.44345 5.11608 4.39794 5.07382C4.2728 4.95843 4.17691 4.85116 4.17691 4.82678C4.17691 4.81215 4.16878 4.79265 4.1574 4.78127C4.13628 4.76014 4.1379 4.55374 4.15903 4.52611C4.16716 4.51798 4.17691 4.49035 4.18178 4.4676C4.19316 4.42372 4.37031 4.23356 4.43695 4.19618C4.52146 4.1458 4.63035 4.09704 4.67586 4.08566C4.70024 4.07916 4.7295 4.06941 4.73762 4.06128C4.74737 4.05478 4.79451 4.04341 4.84326 4.03691C4.89202 4.03203 4.94403 4.02065 4.95703 4.01253C4.98954 3.99465 5.34222 3.99465 5.35359 4.01253ZM7.82561 4.38308C7.84674 4.40421 7.85161 4.42697 7.84349 4.4806C7.83861 4.51798 7.82723 4.56349 7.81911 4.57812C7.79798 4.61712 7.77848 4.66913 7.77685 4.68863C7.77685 4.69676 7.77035 4.71464 7.76385 4.72439C7.75735 4.73577 7.74597 4.78127 7.74109 4.82678C7.73622 4.87229 7.72484 4.91292 7.71834 4.91779C7.71021 4.92267 7.70371 4.95843 7.70371 4.99743C7.70371 5.03644 7.69559 5.07382 7.68584 5.07869C7.67446 5.08682 7.66958 5.14858 7.67283 5.25097C7.67771 5.39887 7.67446 5.41675 7.64195 5.44763L7.60782 5.48338L7.49731 5.446C7.43555 5.42487 7.36078 5.39074 7.32828 5.36962C7.2974 5.34849 7.26489 5.33061 7.25839 5.33061C7.24377 5.33061 7.1495 5.23797 7.12675 5.20059C7.0081 5.00068 7.00973 4.93242 7.1365 4.69513C7.19663 4.58137 7.36566 4.44647 7.52494 4.38634C7.62408 4.34895 7.78985 4.3457 7.82561 4.38308ZM6.98047 7.45969C6.98535 7.46782 7.01623 7.47595 7.04711 7.47595C7.08937 7.47595 7.12025 7.49057 7.17551 7.54258C7.21614 7.57996 7.24864 7.62385 7.24864 7.63847C7.24864 7.65473 7.25677 7.67098 7.26652 7.67423C7.2779 7.67748 7.28602 7.75387 7.28765 7.89039L7.28927 8.10167L7.23564 8.17806C7.20801 8.22031 7.18363 8.25932 7.18363 8.26745C7.18363 8.2902 7.01623 8.44623 6.96422 8.47223C6.93659 8.48523 6.88458 8.50311 6.85045 8.50798C6.8147 8.51449 6.77569 8.52911 6.76269 8.53886C6.73181 8.56324 6.24261 8.56324 6.1906 8.53724C6.16947 8.52749 6.12234 8.51124 6.08658 8.50311C5.96469 8.47223 5.82817 8.41535 5.76966 8.37146C5.73878 8.34708 5.6949 8.31946 5.67214 8.30808C5.58438 8.2642 5.55187 8.23982 5.42998 8.1293C5.36009 8.06592 5.29021 7.9879 5.27558 7.9554C5.24958 7.90176 5.24958 7.89364 5.27233 7.85788C5.35847 7.72786 5.75503 7.50683 5.94356 7.48407C5.99719 7.4792 6.05083 7.4662 6.06383 7.45807C6.09634 7.43857 6.96747 7.43857 6.98047 7.45969Z" fill="white"/>
</svg>
