<svg width="14" height="14" viewBox="0 0 14 14" fill="none" xmlns="http://www.w3.org/2000/svg">
<path fill-rule="evenodd" clip-rule="evenodd" d="M10.7525 0.850028L13.15 3.24754C13.6948 3.793 14.0006 4.53261 14 5.30358V8.69642C13.9987 9.46487 13.6931 10.2015 13.15 10.7452L10.7525 13.15C10.207 13.6948 9.46739 14.0006 8.69642 14H5.30358C4.53261 14.0006 3.793 13.6948 3.24754 13.15L0.850028 10.7452C0.30695 10.2015 0.00131955 9.46487 8.97103e-07 8.69642V5.30358C-0.000604453 4.53261 0.305173 3.793 0.850028 3.24754L3.24754 0.850028C3.793 0.305172 4.53261 -0.000604447 5.30358 8.97086e-07H8.69642C9.46739 -0.000604447 10.207 0.305172 10.7525 0.850028ZM7.49688 7.00014L9.89455 9.39649C9.96137 9.46229 9.99933 9.55223 9.99999 9.64634C10.0007 9.74044 9.96395 9.83091 9.89805 9.89765C9.83276 9.96285 9.74464 9.99961 9.65268 10C9.5595 10.0005 9.46995 9.96371 9.4038 9.89765L6.99912 7.47659L4.59795 9.85882C4.53209 9.92273 4.44403 9.9582 4.35257 9.95764C4.2594 9.95819 4.16984 9.92136 4.10369 9.8553C4.03733 9.78903 4 9.69882 4 9.60472C4 9.51062 4.03733 9.42041 4.10369 9.35414L6.50136 6.97896L4.14225 4.60378C4.07589 4.53751 4.03856 4.44731 4.03856 4.35321C4.03856 4.2591 4.07589 4.1689 4.14225 4.10263C4.27897 3.96579 4.49978 3.96579 4.6365 4.10263L6.99912 6.48134L9.4038 4.12028C9.54371 4.00128 9.75103 4.01079 9.87962 4.1421C10.0082 4.27342 10.0147 4.48226 9.89455 4.62143L7.49688 7.00014Z" fill="white"/>
</svg>
