<svg width="14" height="14" viewBox="0 0 14 14" fill="none" xmlns="http://www.w3.org/2000/svg">
<path fill-rule="evenodd" clip-rule="evenodd" d="M10.7525 0.850028L13.15 3.24754C13.6948 3.793 14.0006 4.53261 14 5.30358V8.69642C13.9987 9.46487 13.6931 10.2015 13.15 10.7452L10.7525 13.15C10.207 13.6948 9.46739 14.0006 8.69642 14H5.30358C4.53261 14.0006 3.793 13.6948 3.24754 13.15L0.850028 10.7452C0.306951 10.2015 0.00132038 9.46487 8.94638e-07 8.69642V5.30358C-0.000603623 4.53261 0.305173 3.793 0.850028 3.24754L3.24754 0.850028C3.793 0.305172 4.53261 -0.000604452 5.30358 8.971e-07H8.69642C9.46739 -0.000604452 10.207 0.305172 10.7525 0.850028ZM5.61742 8.89723C5.70415 8.96362 5.81281 8.99992 5.92496 8.99999C6.04754 9.00062 6.16571 8.95735 6.25516 8.8791L9.79022 5.8265C9.9458 5.72625 10.0249 5.5508 9.99301 5.37684C9.9611 5.20287 9.82394 5.06201 9.64149 5.01582C9.45903 4.96963 9.26445 5.0265 9.14277 5.16157L5.90554 7.94518L4.78222 7.08683C4.57424 6.93702 4.27636 6.96878 4.10992 7.15852C3.94348 7.34827 3.96883 7.62718 4.16714 7.78802L5.61742 8.89723Z" fill="white"/>
</svg>
