<svg width="79" height="10" viewBox="0 0 79 10" fill="none" xmlns="http://www.w3.org/2000/svg">
<path d="M10.5012 3.39669L7.24798 2.9566L5.79372 0.212297C5.754 0.13716 5.68865 0.0763343 5.60793 0.039362C5.40549 -0.0536651 5.15948 0.0238575 5.05826 0.212297L3.60399 2.9566L0.350797 3.39669C0.261107 3.40861 0.179104 3.44797 0.116321 3.5076C0.0404197 3.58022 -0.00140546 3.67791 3.60631e-05 3.77922C0.00147758 3.88053 0.0460678 3.97716 0.124009 4.04787L2.47774 6.18392L1.92166 9.20014C1.90862 9.27031 1.91696 9.34247 1.94574 9.40844C1.97451 9.47442 2.02258 9.53157 2.08447 9.57342C2.14637 9.61526 2.21962 9.64012 2.29592 9.64519C2.37223 9.65025 2.44853 9.63531 2.51618 9.60207L5.42599 8.17804L8.3358 9.60207C8.41524 9.64143 8.50749 9.65454 8.5959 9.64023C8.81884 9.60445 8.96875 9.40767 8.93032 9.20014L8.37424 6.18392L10.728 4.04787C10.792 3.98943 10.8343 3.9131 10.8471 3.82962C10.8817 3.6209 10.7254 3.42769 10.5012 3.39669V3.39669Z" fill="#fff"/>
<path d="M27.382 3.39669L24.1288 2.9566L22.6746 0.212297C22.6349 0.13716 22.5695 0.0763343 22.4888 0.039362C22.2863 -0.0536651 22.0403 0.0238575 21.9391 0.212297L20.4849 2.9566L17.2317 3.39669C17.142 3.40861 17.06 3.44797 16.9972 3.5076C16.9213 3.58022 16.8795 3.67791 16.8809 3.77922C16.8823 3.88053 16.9269 3.97716 17.0049 4.04787L19.3586 6.18392L18.8025 9.20014C18.7895 9.27031 18.7978 9.34247 18.8266 9.40844C18.8554 9.47442 18.9034 9.53157 18.9653 9.57342C19.0272 9.61526 19.1005 9.64012 19.1768 9.64519C19.2531 9.65025 19.3294 9.63531 19.397 9.60207L22.3068 8.17804L25.2167 9.60207C25.2961 9.64143 25.3884 9.65454 25.4768 9.64023C25.6997 9.60445 25.8496 9.40767 25.8112 9.20014L25.2551 6.18392L27.6088 4.04787C27.6729 3.98943 27.7152 3.9131 27.728 3.82962C27.7626 3.6209 27.6063 3.42769 27.382 3.39669V3.39669Z" fill="#fff"/>
<path d="M44.2629 3.39669L41.0097 2.9566L39.5554 0.212297C39.5157 0.13716 39.4504 0.0763343 39.3696 0.039362C39.1672 -0.0536651 38.9212 0.0238575 38.82 0.212297L37.3657 2.9566L34.1125 3.39669C34.0228 3.40861 33.9408 3.44797 33.878 3.5076C33.8021 3.58022 33.7603 3.67791 33.7618 3.77922C33.7632 3.88053 33.8078 3.97716 33.8857 4.04787L36.2395 6.18392L35.6834 9.20014C35.6703 9.27031 35.6787 9.34247 35.7075 9.40844C35.7362 9.47442 35.7843 9.53157 35.8462 9.57342C35.9081 9.61526 35.9813 9.64012 36.0576 9.64519C36.1339 9.65025 36.2102 9.63531 36.2779 9.60207L39.1877 8.17804L42.0975 9.60207C42.177 9.64143 42.2692 9.65454 42.3576 9.64023C42.5806 9.60445 42.7305 9.40767 42.692 9.20014L42.136 6.18392L44.4897 4.04787C44.5537 3.98943 44.596 3.9131 44.6088 3.82962C44.6434 3.6209 44.4871 3.42769 44.2629 3.39669V3.39669Z" fill="#fff"/>
<path d="M61.1433 3.39669L57.8901 2.9566L56.4358 0.212297C56.3961 0.13716 56.3307 0.0763343 56.25 0.039362C56.0476 -0.0536651 55.8016 0.0238575 55.7003 0.212297L54.2461 2.9566L50.9929 3.39669C50.9032 3.40861 50.8212 3.44797 50.7584 3.5076C50.6825 3.58022 50.6407 3.67791 50.6421 3.77922C50.6436 3.88053 50.6882 3.97716 50.7661 4.04787L53.1198 6.18392L52.5637 9.20014C52.5507 9.27031 52.559 9.34247 52.5878 9.40844C52.6166 9.47442 52.6647 9.53157 52.7266 9.57342C52.7885 9.61526 52.8617 9.64012 52.938 9.64519C53.0143 9.65025 53.0906 9.63531 53.1583 9.60207L56.0681 8.17804L58.9779 9.60207C59.0573 9.64143 59.1496 9.65454 59.238 9.64023C59.4609 9.60445 59.6108 9.40767 59.5724 9.20014L59.0163 6.18392L61.3701 4.04787C61.4341 3.98943 61.4764 3.9131 61.4892 3.82962C61.5238 3.6209 61.3675 3.42769 61.1433 3.39669V3.39669Z" fill="#fff"/>
<path d="M78.0241 3.39669L74.7709 2.9566L73.3167 0.212297C73.2769 0.13716 73.2116 0.0763343 73.1309 0.039362C72.9284 -0.0536651 72.6824 0.0238575 72.5812 0.212297L71.1269 2.9566L67.8737 3.39669C67.7841 3.40861 67.7021 3.44797 67.6393 3.5076C67.5634 3.58022 67.5215 3.67791 67.523 3.77922C67.5244 3.88053 67.569 3.97716 67.647 4.04787L70.0007 6.18392L69.4446 9.20014C69.4316 9.27031 69.4399 9.34247 69.4687 9.40844C69.4975 9.47442 69.5455 9.53157 69.6074 9.57342C69.6693 9.61526 69.7426 9.64012 69.8189 9.64519C69.8952 9.65025 69.9715 9.63531 70.0391 9.60207L72.9489 8.17804L75.8587 9.60207C75.9382 9.64143 76.0304 9.65454 76.1188 9.64023C76.3418 9.60445 76.4917 9.40767 76.4533 9.20014L75.8972 6.18392L78.2509 4.04787C78.315 3.98943 78.3573 3.9131 78.3701 3.82962C78.4047 3.6209 78.2484 3.42769 78.0241 3.39669V3.39669Z" fill="#fff"/>
</svg>
