<svg width="35" height="36" viewBox="0 0 35 36" fill="none" xmlns="http://www.w3.org/2000/svg">
<path fill-rule="evenodd" clip-rule="evenodd" d="M17.1658 0C12.6488 0 8.53275 1.492 6.09775 2.711C5.87775 2.821 5.67275 2.929 5.48175 3.033C5.10375 3.239 4.78175 3.431 4.52575 3.6L7.29575 7.678L8.59975 8.197C13.6958 10.768 20.5298 10.768 25.6268 8.197L27.1068 7.429L29.7268 3.6C29.184 3.24599 28.6195 2.92637 28.0368 2.643C25.6148 1.437 21.5978 0 17.1658 0ZM10.7228 4.616C9.74187 4.43245 8.77308 4.18933 7.82175 3.888C10.1028 2.875 13.5028 1.8 17.1648 1.8C19.7018 1.8 22.1008 2.316 24.0848 2.97C21.7598 3.297 19.2788 3.852 16.9148 4.535C15.0548 5.073 12.8808 5.015 10.7228 4.616V4.616ZM26.6828 9.68L26.4378 9.804C20.8308 12.632 13.3948 12.632 7.78775 9.804L7.55575 9.686C-0.866249 18.927 -7.29625 35.997 17.1658 35.997C41.6258 35.997 35.0388 18.608 26.6828 9.68ZM16.1258 18C15.5953 18 15.0866 18.2107 14.7115 18.5858C14.3365 18.9609 14.1258 19.4696 14.1258 20C14.1258 20.5304 14.3365 21.0391 14.7115 21.4142C15.0866 21.7893 15.5953 22 16.1258 22V18ZM18.1258 16V15H16.1258V16C15.0649 16 14.0475 16.4214 13.2973 17.1716C12.5472 17.9217 12.1258 18.9391 12.1258 20C12.1258 21.0609 12.5472 22.0783 13.2973 22.8284C14.0475 23.5786 15.0649 24 16.1258 24V28C15.7121 28.0001 15.3087 27.872 14.9709 27.6332C14.6331 27.3945 14.3777 27.0569 14.2398 26.667C14.1514 26.4169 13.9674 26.2121 13.7281 26.0977C13.4888 25.9833 13.2138 25.9687 12.9638 26.057C12.7137 26.1453 12.5089 26.3294 12.3945 26.5687C12.2801 26.808 12.2654 27.0829 12.3538 27.333C12.6296 28.113 13.1404 28.7883 13.816 29.2659C14.4915 29.7435 15.2984 30 16.1258 30V31H18.1258V30C19.1866 30 20.204 29.5786 20.9542 28.8284C21.7043 28.0783 22.1258 27.0609 22.1258 26C22.1258 24.9391 21.7043 23.9217 20.9542 23.1716C20.204 22.4214 19.1866 22 18.1258 22V18C18.9958 18 19.7368 18.555 20.0128 19.333C20.0537 19.4603 20.1198 19.5781 20.207 19.6794C20.2943 19.7807 20.401 19.8635 20.5208 19.9228C20.6406 19.9822 20.7711 20.0169 20.9046 20.0249C21.038 20.033 21.1718 20.0142 21.2978 19.9696C21.4239 19.9251 21.5398 19.8557 21.6386 19.7656C21.7374 19.6755 21.8171 19.5665 21.873 19.4451C21.9289 19.3236 21.9599 19.1922 21.9642 19.0585C21.9684 18.9249 21.9459 18.7918 21.8978 18.667C21.6219 17.887 21.1111 17.2117 20.4355 16.7341C19.76 16.2565 18.9531 16 18.1258 16ZM18.1258 24V28C18.6562 28 19.1649 27.7893 19.54 27.4142C19.915 27.0391 20.1258 26.5304 20.1258 26C20.1258 25.4696 19.915 24.9609 19.54 24.5858C19.1649 24.2107 18.6562 24 18.1258 24Z" fill="#F8F8F8"/>
</svg>
