<svg width="31" height="34" viewBox="0 0 31 34" fill="none" xmlns="http://www.w3.org/2000/svg">
<path fill-rule="evenodd" clip-rule="evenodd" d="M4.42857 0C3.25404 0 2.12762 0.447766 1.2971 1.2448C0.46658 2.04183 0 3.12283 0 4.25V34L7.75 29.75L15.5 34L23.25 29.75L31 34V4.25C31 3.12283 30.5334 2.04183 29.7029 1.2448C28.8724 0.447766 27.746 0 26.5714 0H4.42857ZM9.96428 6.375C9.08339 6.375 8.23857 6.71082 7.61568 7.3086C6.99279 7.90637 6.64286 8.71712 6.64286 9.5625C6.64286 10.4079 6.99279 11.2186 7.61568 11.8164C8.23857 12.4142 9.08339 12.75 9.96428 12.75C10.8452 12.75 11.69 12.4142 12.3129 11.8164C12.9358 11.2186 13.2857 10.4079 13.2857 9.5625C13.2857 8.71712 12.9358 7.90637 12.3129 7.3086C11.69 6.71082 10.8452 6.375 9.96428 6.375ZM23.7084 6.99763C23.2931 6.59925 22.73 6.37545 22.1429 6.37545C21.5557 6.37545 20.9926 6.59925 20.5774 6.99763L7.29164 19.7476C7.08016 19.9436 6.91147 20.1781 6.79542 20.4374C6.67937 20.6966 6.61829 20.9755 6.61573 21.2576C6.61318 21.5398 6.6692 21.8196 6.78054 22.0808C6.89187 22.3419 7.05629 22.5792 7.2642 22.7787C7.4721 22.9782 7.71933 23.136 7.99146 23.2429C8.26359 23.3497 8.55516 23.4035 8.84917 23.401C9.14319 23.3986 9.43374 23.34 9.70389 23.2286C9.97405 23.1172 10.2184 22.9553 10.4226 22.7524L23.7084 10.0024C24.1235 9.60388 24.3567 9.06347 24.3567 8.5C24.3567 7.93653 24.1235 7.39612 23.7084 6.99763ZM21.0357 17C20.1548 17 19.31 17.3358 18.6871 17.9336C18.0642 18.5314 17.7143 19.3421 17.7143 20.1875C17.7143 21.0329 18.0642 21.8436 18.6871 22.4414C19.31 23.0392 20.1548 23.375 21.0357 23.375C21.9166 23.375 22.7614 23.0392 23.3843 22.4414C24.0072 21.8436 24.3571 21.0329 24.3571 20.1875C24.3571 19.3421 24.0072 18.5314 23.3843 17.9336C22.7614 17.3358 21.9166 17 21.0357 17Z" fill="#F8F8F8"/>
</svg>
