<svg width="38" height="38" viewBox="0 0 38 38" fill="none" xmlns="http://www.w3.org/2000/svg">
<path d="M23.0301 7.21777C22.4363 6.95801 21.7312 7.23633 21.4715 7.84863L18.9852 13.6562C17.3523 13.6785 16.0312 14.9922 16.0312 16.625C16.0312 18.2667 17.3583 19.5938 19 19.5938C20.6417 19.5938 21.9688 18.2652 21.9688 16.625C21.9688 15.8457 21.6533 15.1406 21.1523 14.6122L23.6572 8.77637C23.9207 8.17148 23.6312 7.48125 23.0301 7.21777ZM33.25 4.75H29.0767C26.6816 1.84879 23.0598 0 19 0C14.9402 0 11.3184 1.84879 8.92109 4.75H4.75C2.13379 4.75 0 6.88379 0 9.5V33.25C0 35.8662 2.13379 38 4.75 38H33.25C35.8662 38 38 35.8662 38 33.25V9.5C38 6.88379 35.8699 4.75 33.25 4.75ZM19 22.5625C13.7616 22.5625 9.5 18.3009 9.5 13.0625C9.5 7.82414 13.7616 3.5625 19 3.5625C24.2384 3.5625 28.5 7.82414 28.5 13.0625C28.5 18.3009 24.2398 22.5625 19 22.5625Z" fill="#F8F8F8"/>
</svg>
