<svg xmlns="http://www.w3.org/2000/svg" version="1.1" xmlns:xlink="http://www.w3.org/1999/xlink" xmlns:svgjs="http://svgjs.com/svgjs" width="512" height="512" x="0" y="0" viewBox="0 0 512 512" style="enable-background:new 0 0 512 512" xml:space="preserve" class=""><g><g xmlns="http://www.w3.org/2000/svg"><path d="m70.5 341v-42c0-1.657-1.343-3-3-3h-28.453c-13.422 0-24.765 10.983-24.543 24.403.215 13.045 10.9 23.597 23.996 23.597h29c1.657 0 3-1.343 3-3z" fill="#ffffff" data-original="#000000" class=""></path><path d="m67.492 360.001c-23.828.011-29.844.143-33.683-.265-1.772-.189-3.309 1.199-3.309 2.981v53.283c0 25.11 14.535 46.896 35.645 57.362 2.003.993 4.357-.446 4.355-2.682-.004-8.359 0-33.061 0-107.677 0-1.657-1.35-3.003-3.008-3.002z" fill="#ffffff" data-original="#000000" class=""></path><path d="m472.953 296h-31.453c-1.657 0-3 1.343-3 3v42c0 1.657 1.343 3 3 3h32c13.096 0 23.781-10.552 23.997-23.597.222-13.42-11.122-24.403-24.544-24.403z" fill="#ffffff" data-original="#000000" class=""></path><path d="m438.5 363.003c0 74.62.004 99.32 0 107.678-.001 2.236 2.352 3.675 4.355 2.682 21.11-10.467 35.645-32.253 35.645-57.363v-53.05c0-1.696-1.401-3.053-3.097-2.998-3.012.098-9.938.052-33.893.048-1.657 0-3.01 1.345-3.01 3.003z" fill="#ffffff" data-original="#000000" class=""></path><path d="m190.5 65.417v-37.417c0-15.464-12.536-28-28-28h-32c-15.464 0-28 12.536-28 28v99.139c0 2.877 3.647 4.096 5.387 1.804 20.56-27.088 48.446-48.319 80.683-60.732 1.16-.447 1.93-1.551 1.93-2.794z" fill="#ffffff" data-original="#000000" class=""></path><path d="m406.5 127.139v-99.139c0-15.464-12.536-28-28-28h-32c-15.464 0-28 12.536-28 28v37.417c0 1.242.77 2.347 1.93 2.793 32.237 12.413 60.123 33.644 80.683 60.732 1.74 2.293 5.387 1.074 5.387-1.803z" fill="#ffffff" data-original="#000000" class=""></path><path d="m274.371 57.065c4.371.472 8.693 1.097 12.967 1.873 2.41.437 4.318-2.029 3.258-4.237-1.933-4.024-4.556-7.734-7.806-10.99-19.802-19.775-52.802-13.395-64.381 11-1.047 2.206.858 4.66 3.26 4.226 4.279-.773 8.605-1.399 12.975-1.871.761-.082 1.448-.462 1.956-1.033 9.578-10.765 26.37-10.649 35.808-.005.51.572 1.199.954 1.963 1.037z" fill="#ffffff" data-original="#000000" class=""></path><path d="m336.5 344h-172c-12.15 0-22 9.85-22 22v7c0 1.657 1.343 3 3 3h210c1.657 0 3-1.343 3-3v-7c0-12.15-9.85-22-22-22z" fill="#ffffff" data-original="#000000" class=""></path><path d="m182.5 408c0 4.594-3.874 8.285-8.533 7.983-4.252-.276-7.467-3.996-7.467-8.257v-12.726c0-1.657-1.343-3-3-3h-18c-1.657 0-3 1.343-3 3v51c0 1.105.895 2 2 2h212c1.105 0 2-.895 2-2v-51c0-1.657-1.343-3-3-3h-170c-1.657 0-3 1.343-3 3z" fill="#ffffff" data-original="#000000" class=""></path><path d="m254.5 72c-92.636 0-168 75.364-168 168v234c0 20.953 17.047 38 38 38h260c20.953 0 38-17.047 38-38v-234c0-92.636-75.364-168-168-168zm-64 114c0-9.925 8.075-18 18-18h92c9.925 0 18 8.075 18 18v44c0 9.925-8.075 18-18 18h-92c-9.925 0-18-8.075-18-18zm184 260c0 9.925-8.075 18-18 18h-212c-9.925 0-18-8.075-18-18 0-16.252 0-63.401 0-80 0-20.953 17.047-38 38-38h172c20.953 0 38 17.047 38 38z" fill="#ffffff" data-original="#000000" class=""></path><path d="m208.5 232h92c1.103 0 2-.897 2-2v-44c0-1.103-.897-2-2-2h-92c-1.103 0-2 .897-2 2v44c0 1.103.897 2 2 2zm22-32h48c4.418 0 8 3.582 8 8s-3.582 8-8 8h-48c-4.418 0-8-3.582-8-8s3.582-8 8-8z" fill="#ffffff" data-original="#000000" class=""></path></g></g></svg>