<svg viewBox="0 0 511.99981 511" xmlns="http://www.w3.org/2000/svg" fill="#fff"><path d="m373.664062 117.507812c1.382813 1.382813 2.492188 2.996094 3.421876 4.765626 27.851562-51.089844 36.171874-92.429688 17.789062-110.8125-31.714844-31.714844-122.773438 6.734374-223.726562 98.03125l63.9375 63.941406c65.203124-56.347656 118.527343-75.976563 138.578124-55.925782zm0 0"/><path d="m122.015625 377.167969c-1.769531-.925781-3.382813-2.039063-4.765625-3.417969-20.050781-20.054688-2.144531-71.484375 54.207031-136.683594l-63.941406-63.941406c-91.300781 100.953125-128.03125 190.121094-96.316406 221.835938 18.382812 18.382812 59.726562 10.0625 110.816406-17.792969zm0 0"/><path d="m389.34375 331.332031c0 33.128907-26.859375 59.988281-59.992188 59.988281-33.132812 0-59.992187-26.859374-59.992187-59.988281 0-33.132812 26.859375-59.992187 59.992187-59.992187 33.132813 0 59.992188 26.859375 59.992188 59.992187zm0 0"/><path d="m418.511719 323.113281c80.828125-94.605469 112.242187-175.773437 82.414062-205.605469l-67.09375-67.09375c-5.589843 56.171876-43.488281 122.351563-103.085937 191.101563 22.578125.351563 45.050781 8.996094 62.238281 26.183594 15.445313 15.449219 23.683594 35.191406 25.527344 55.414062zm18.785156-184.394531 21.210937 21.210938-21.210937 21.210937-21.210937-21.210937zm-21.210937 63.632812 21.210937 21.207032-21.210937 21.210937-21.210938-21.210937zm0 0"/><path d="m117.25 501.011719c29.832031 29.828125 109.28125.304687 203.882812-80.523438-20.222656-1.84375-39.960937-10.082031-55.410156-25.527343-17.1875-17.1875-25.832031-39.664063-26.183594-62.238282-68.75 59.597656-133.210937 95.605469-189.382812 101.191406zm106.050781-106.050781 21.210938 21.207031-21.210938 21.210937-21.210937-21.210937zm-63.628906 21.207031 21.210937 21.210937-21.210937 21.210938-21.210937-21.210938zm0 0"/></svg>