<svg xmlns="http://www.w3.org/2000/svg" version="1.1" xmlns:xlink="http://www.w3.org/1999/xlink" xmlns:svgjs="http://svgjs.com/svgjs" width="512" height="512" x="0" y="0" viewBox="0 0 512 512" style="enable-background:new 0 0 512 512" xml:space="preserve" class=""><g><path xmlns="http://www.w3.org/2000/svg" d="m203.27 13.4-189.87 189.87c15.25 5.1 31.31 7.73 47.6 7.73 82.71 0 150-67.29 150-150 0-16.24-2.64-32.34-7.73-47.6zm52.73 77.6c-5.9 0-11.81.31-17.66.94-12.96 74.51-71.89 133.44-146.4 146.4-.63 5.86-.94 11.76-.94 17.66 0 90.98 74.02 165 165 165s165-74.02 165-165-74.02-165-165-165zm63.8 252.81-63.8-33.12-63.8 33.12 11.79-70.91-51.22-50.44 71.08-10.71 32.15-64.29 32.15 64.29 71.08 10.71-51.22 50.44zm-51.52-104.71-12.28-24.56-12.28 24.56-27.15 4.09 19.56 19.27-4.5 27.08 24.37-12.65 24.37 12.65-4.5-27.08 19.56-19.27zm-12.28-239.1c-10.24 0-18.76.6-25.19 1.26 11.069 31.507 9.821 55.944 10.19 60.31 4.98-.38 10-.57 15-.57 107.52 0 195 87.48 195 195s-87.48 195-195 195-195-87.48-195-195c0-5 .19-10.01.57-15-3.313-.278-28.482 1.022-60.29-10.17-.67 6.37-1.28 14.68-1.28 25.17 0 141.581 114.29 256 256 256 141.613 0 256-114.332 256-256 0-141.587-114.31-256-256-256z" fill="#ffffff" data-original="#000000" class=""></path></g></svg>