<?xml version="1.0" encoding="iso-8859-1"?>
<!-- Generator: Adobe Illustrator 19.0.0, SVG Export Plug-In . SVG Version: 6.00 Build 0)  -->
<svg version="1.1" id="Capa_1" xmlns="http://www.w3.org/2000/svg" xmlns:xlink="http://www.w3.org/1999/xlink" x="0px" y="0px"
	 viewBox="0 0 511.977 511.977" style="enable-background:new 0 0 511.977 511.977;" xml:space="preserve" fill="#fff">
<g transform="translate(-1)">
	<g>
		<g>
			<path d="M150.418,231.315c10.049-8.086,14.672-21.152,11.945-33.759c-2.727-12.607-12.337-22.594-24.83-25.804v-35.755
				c35.76-4.505,61.856-36.034,59.599-72.006C194.875,28.02,165.042,0,128.999,0S63.124,28.02,60.867,63.992
				c-2.257,35.972,23.839,67.501,59.599,72.006v35.755c-12.493,3.21-22.103,13.197-24.83,25.804
				c-2.727,12.607,1.896,25.673,11.945,33.759L30.098,354.11c-17.209,31.891-15.971,70.566,3.243,101.291
				c19.366,34.714,55.909,56.327,95.659,56.576c39.727-0.249,76.258-21.822,95.659-56.491
				c19.252-30.852,20.426-69.674,3.072-101.632L150.418,231.315z M128.999,34.11c18.851,0,34.133,15.282,34.133,34.133
				c0,4.713-3.82,8.533-8.533,8.533s-8.533-3.82-8.533-8.533c-0.028-9.414-7.653-17.039-17.067-17.067
				c-4.713,0-8.533-3.82-8.533-8.533S124.286,34.11,128.999,34.11z M94.866,68.243c0-2.263,0.899-4.434,2.499-6.034
				c1.6-1.6,3.771-2.499,6.034-2.499c4.713,0,8.533,3.82,8.533,8.533c0.028,9.414,7.653,17.039,17.067,17.067
				c4.713,0,8.533,3.821,8.533,8.533c0,4.713-3.82,8.533-8.533,8.533C110.148,102.377,94.866,87.095,94.866,68.243z M128.999,187.71
				c9.414,0.028,17.039,7.653,17.067,17.067c0.019,4.611-1.864,9.025-5.205,12.203c-6.624-6.372-17.099-6.372-23.723,0
				c-3.341-3.177-5.225-7.592-5.205-12.203C111.961,195.363,119.585,187.738,128.999,187.71z M205.714,404.371
				c-0.347,5.825-1.407,11.585-3.157,17.152c-1.848,5.86-4.338,11.497-7.424,16.811c-3.472,5.996-7.686,11.529-12.544,16.469
				c-4.647,4.808-9.896,8.995-15.616,12.459c-5.691,3.398-11.801,6.037-18.176,7.851c-6.444,1.809-13.105,2.727-19.797,2.731
				c-13.359,0-26.463-3.659-37.888-10.581c-5.762-3.44-11.042-7.63-15.701-12.459c-4.832-4.962-9.044-10.492-12.544-16.469
				c-3.086-5.313-5.576-10.951-7.424-16.811c-1.75-5.567-2.81-11.327-3.157-17.152c-0.356-5.664,0.075-11.35,1.28-16.896
				c1.137-5.495,3.093-10.788,5.803-15.701l31.317-49.749c1.631-2.591,4.521-4.116,7.58-3.999c3.06,0.117,5.825,1.857,7.253,4.565
				c1.429,2.708,1.304,5.973-0.327,8.564l-31.147,49.237c-1.764,3.362-3.056,6.952-3.84,10.667
				c-0.847,4.037-1.134,8.172-0.853,12.288c0.257,4.434,1.059,8.819,2.389,13.056c1.498,4.629,3.471,9.09,5.888,13.312
				c2.771,4.777,6.125,9.191,9.984,13.141c3.659,3.784,7.789,7.082,12.288,9.813c4.358,2.607,9.033,4.643,13.909,6.059
				c9.942,2.731,20.437,2.731,30.379,0c4.898-1.431,9.599-3.466,13.995-6.059c9.159-5.725,16.777-13.606,22.187-22.955
				c2.401-4.2,4.374-8.632,5.888-13.227c1.35-4.265,2.181-8.677,2.475-13.141c0.207-4.119-0.108-8.248-0.939-12.288
				c-0.824-3.876-2.204-7.612-4.096-11.093l-54.699-86.699l-8.277,13.227c-2.521,4.006-7.813,5.209-11.819,2.688
				c-4.006-2.521-5.209-7.813-2.688-11.819l15.531-24.576c1.681-2.331,4.38-3.712,7.253-3.712c2.874,0,5.572,1.381,7.253,3.712
				l62.123,98.56c2.835,5.034,4.878,10.473,6.059,16.128C205.635,393.022,206.066,398.707,205.714,404.371z"/>
			<path d="M483.73,353.854l-77.312-122.539c10.049-8.086,14.672-21.152,11.945-33.759c-2.727-12.607-12.337-22.594-24.83-25.804
				v-35.755c35.76-4.505,61.856-36.034,59.599-72.006C450.875,28.02,421.042,0,384.999,0s-65.876,28.02-68.133,63.992
				c-2.257,35.972,23.839,67.501,59.599,72.006v35.755c-12.492,3.21-22.103,13.197-24.83,25.804
				c-2.727,12.607,1.896,25.673,11.945,33.759L286.098,354.11c-17.209,31.891-15.97,70.566,3.243,101.291
				c19.196,34.864,55.835,56.527,95.633,56.545s76.457-21.613,95.684-56.459C499.91,424.634,501.084,385.812,483.73,353.854z
				 M384.999,34.11c18.851,0,34.133,15.282,34.133,34.133c0,4.713-3.821,8.533-8.533,8.533c-4.713,0-8.533-3.82-8.533-8.533
				c-0.028-9.414-7.653-17.039-17.067-17.067c-4.713,0-8.533-3.82-8.533-8.533S380.286,34.11,384.999,34.11z M350.866,68.243
				c0-2.263,0.899-4.434,2.499-6.034c1.6-1.6,3.771-2.499,6.034-2.499c4.713,0,8.533,3.82,8.533,8.533
				c0.028,9.414,7.653,17.039,17.067,17.067c4.713,0,8.533,3.821,8.533,8.533c0,4.713-3.82,8.533-8.533,8.533
				C366.148,102.377,350.866,87.095,350.866,68.243z M384.999,187.71c9.414,0.028,17.039,7.653,17.067,17.067
				c0.019,4.611-1.864,9.025-5.205,12.203c-6.624-6.372-17.099-6.372-23.723,0c-3.341-3.177-5.225-7.592-5.205-12.203
				C367.961,195.363,375.585,187.738,384.999,187.71z M461.714,404.371c-0.347,5.825-1.407,11.585-3.157,17.152
				c-1.848,5.86-4.338,11.497-7.424,16.811c-3.472,5.996-7.686,11.529-12.544,16.469c-4.647,4.808-9.896,8.995-15.616,12.459
				c-5.691,3.398-11.801,6.037-18.176,7.851c-6.444,1.809-13.105,2.727-19.797,2.731c-13.359,0-26.463-3.659-37.888-10.581
				c-5.762-3.44-11.042-7.63-15.701-12.459c-4.832-4.962-9.044-10.492-12.544-16.469c-3.086-5.313-5.576-10.951-7.424-16.811
				c-1.75-5.567-2.811-11.327-3.157-17.152c-0.356-5.664,0.075-11.35,1.28-16.896c1.137-5.495,3.093-10.788,5.803-15.701
				l31.317-49.749c2.521-4.006,7.813-5.209,11.819-2.688c4.006,2.521,5.209,7.813,2.688,11.819l-31.147,49.237
				c-1.764,3.362-3.056,6.952-3.84,10.667c-0.847,4.037-1.134,8.172-0.853,12.288c0.257,4.434,1.059,8.819,2.389,13.056
				c1.498,4.629,3.471,9.09,5.888,13.312c2.771,4.777,6.125,9.191,9.984,13.141c3.659,3.784,7.789,7.082,12.288,9.813
				c4.358,2.607,9.033,4.643,13.909,6.059c9.942,2.731,20.437,2.731,30.379,0c4.898-1.431,9.599-3.466,13.995-6.059
				c9.159-5.725,16.777-13.606,22.187-22.955c2.401-4.2,4.374-8.632,5.888-13.227c1.35-4.265,2.181-8.677,2.475-13.141
				c0.207-4.119-0.108-8.248-0.939-12.288c-0.824-3.876-2.204-7.612-4.096-11.093l-54.699-86.699l-8.277,13.227
				c-2.521,4.006-7.813,5.209-11.819,2.688c-4.006-2.521-5.209-7.813-2.688-11.819l15.531-24.576
				c1.681-2.331,4.38-3.712,7.253-3.712s5.572,1.381,7.253,3.712l62.123,98.56c2.835,5.034,4.878,10.473,6.059,16.128
				C461.635,393.022,462.066,398.707,461.714,404.371z"/>
		</g>
	</g>
</g>
<g>
</g>
<g>
</g>
<g>
</g>
<g>
</g>
<g>
</g>
<g>
</g>
<g>
</g>
<g>
</g>
<g>
</g>
<g>
</g>
<g>
</g>
<g>
</g>
<g>
</g>
<g>
</g>
<g>
</g>
</svg>
