<svg height="512" viewBox="0 0 56 57" width="512" xmlns="http://www.w3.org/2000/svg" fill="#fff"><g id="004---Jacket" transform="translate(-1)"><path id="Shape" d="m12.77 54.05c0 1.1045695.8954305 2 2 2h9.23v-5.05h-11.29z"/><path id="Shape" d="m36.2 4.11c.4399532-.91382604.7109829-1.89969668.8-2.91-.61-.44-3.4-1.2-8-1.2s-7.38.76-8 1.2c.0869494 1.00948113.3545321 1.99513386.79 2.91 4.689041-1.48186921 9.720959-1.48186921 14.41 0z"/><path id="Shape" d="m27.92 14.83c-.324722-2.1010603-1.5867027-3.9406823-3.43-5-1.9954724-1.15822179-3.5845485-2.90445918-4.55-5l-.89 3.17c.42 1.11 2.47 5.64 8.87 6.83z"/><path id="Shape" d="m10.45 12c-1.29138686.6052508-2.2628489 1.7331655-2.67 3.1l-6.66 23.13c-.23496064.7841209-.13930855 1.6302005.26477928 2.3420749s1.08151539 1.2277154 1.87522072 1.4279251c3.71.95 4.22 1.24 5.28.89.95882482-.2908471 1.7091529-1.0411752 2-2l-.54-26.26c-.01330814-.8969034.1392538-1.7885432.45-2.63z"/><path id="Shape" d="m2.76 43.9c-.34636432-.1024306-.68141974-.2398034-1-.41l-.53 2.07 5.77 1.49.52-2.05c-.81 0-.87-.11-4.76-1.1z"/><path id="Shape" d="m32.49 8.14c1.0097864-.59544587 1.9013137-1.37171871 2.63-2.29-4.0003628-1.14003492-8.2396372-1.14003492-12.24 0 .7286863.91828129 1.6202136 1.69455413 2.63 2.29 1.490644.86405051 2.7019422 2.1378226 3.49 3.67.7903549-1.5305442 2.0011026-2.80373736 3.49-3.67z"/><path id="Shape" d="m33.52 9.86c-1.8432973 1.0593177-3.105278 2.8989397-3.43 5 6.39-1.22 8.45-5.74 8.91-6.86l-.9-3.13c-.9734139 2.09726685-2.5736715 3.84077898-4.58 4.99z"/><path id="Shape" d="m30.23 20-1.23-2.06-1.23 2.06z"/><path id="Shape" d="m34 56h9.23c1.1045695 0 2-.8954305 2-2l.06-3h-11.29z"/><path id="Shape" d="m42 9.29-1.27-.37c-1.793752 4.1809665-5.6141158 7.1435434-10.11 7.84l1.38 2.24c.3562079.6169405.3573625 1.3767843.0030309 1.9948044-.3543315.6180201-1.0106537 1.0009106-1.7230309 1.0051956h-.28v34h2v-5c0-1.1045695.8954305-2 2-2h11.33l.67-34.41c.0175281-2.4675844-1.6221934-4.64021534-4-5.3zm1 35.71c0 1.1045695-.8954305 2-2 2h-2c-1.1045695 0-2-.8954305-2-2v-8c0-1.1045695.8954305-2 2-2h2c1.1045695 0 2 .8954305 2 2z"/><path id="Rectangle-path" d="m39 37h2v8h-2z"/><path id="Shape" d="m54.74 42c.7845371-.2010267 1.454468-.7107123 1.8574988-1.4131911.4030307-.7024787.5049184-1.5380658.2825012-2.3168089l-6.66-23.17c-.4071511-1.3668345-1.3786131-2.4947492-2.67-3.1.3115161.8447206.4640829 1.7397795.45 2.64l-.51 26.21c.4809366 1.5247852 2.073174 2.4044744 3.62 2z"/><path id="Rectangle-path" d="m17 37h2v8h-2z"/><path id="Shape" d="m26 21c-.3572656-.6188022-.3572656-1.3811978 0-2l1.33-2.21c-4.4927728-.7036733-8.3100332-3.6638435-10.11-7.84l-1.22.34c-2.3721585.66181746-4.0095505 2.8272683-4 5.29l.67 34.42h11.33c1.1045695 0 2 .8954305 2 2v5h2v-34c-.8081429.1052864-1.5993433-.2903139-2-1zm-5 24c0 1.1045695-.8954305 2-2 2h-2c-1.1045695 0-2-.8954305-2-2v-8c0-1.1045695.8954305-2 2-2h2c1.1045695 0 2 .8954305 2 2z"/><path id="Shape" d="m55.24 43.9c-3.48.89-3.89 1.06-4.76 1.09l.52 2.06 5.81-1.49-.53-2.07c-.330894.1737121-.6795828.311176-1.04.41z"/></g></svg>