<svg id="Capa_1" enable-background="new 0 0 512 512" height="512" viewBox="0 0 512 512" width="512" xmlns="http://www.w3.org/2000/svg" fill="#fff"><g><path d="m473.473 35.958c-2.997-1.468-75.051-35.958-217.473-35.958s-214.476 34.49-217.473 35.958c-5.142 2.519-8.402 7.745-8.402 13.471v160.969c0 136.749 88.901 257.656 221.219 300.862 1.513.494 3.084.741 4.656.741s3.143-.247 4.656-.741c132.318-43.206 221.219-164.113 221.219-300.862v-160.969c0-5.726-3.26-10.952-8.402-13.471zm-368.098 123.084s26.975-36.708 60.25-36.708 60.25 36.708 60.25 36.708-26.975 36.708-60.25 36.708-60.25-36.708-60.25-36.708zm147.625 217.458c-51.57 0-93.375-41.805-93.375-93.375h186.75c0 51.57-41.805 93.375-93.375 93.375zm93.375-180.75c-33.275 0-60.25-36.708-60.25-36.708s26.975-36.708 60.25-36.708 60.25 36.708 60.25 36.708-26.975 36.708-60.25 36.708z"/></g></svg>