<svg id="Capa_1" enable-background="new 0 0 512 512" height="512" viewBox="0 0 512 512" width="512" xmlns="http://www.w3.org/2000/svg" fill="#fff"><g><ellipse cx="334.403" cy="265.991" rx="40" ry="40" transform="matrix(.373 -.928 .928 .373 -37.195 476.922)"/><ellipse cx="400.255" cy="220.529" rx="40" ry="40" transform="matrix(.707 -.707 .707 .707 -38.706 347.615)"/><ellipse cx="443.015" cy="152.891" rx="40" ry="40" transform="matrix(.366 -.931 .931 .366 138.631 509.245)"/><path d="m495.803 72.284c-.681-16.811-11.648-30.767-26.586-36.076v-21.208c0-8.284-6.716-15-15-15s-15 6.716-15 15v22.518c-14.333 6.553-24.025 21.284-23.348 38.005.894 22.073 19.513 39.242 41.586 38.348 22.074-.894 39.243-19.513 38.348-41.587z"/><circle cx="177.597" cy="265.991" r="40"/><circle cx="111.745" cy="220.529" r="40"/><ellipse cx="68.985" cy="152.891" rx="40" ry="40" transform="matrix(.856 -.516 .516 .856 -69.025 57.562)"/><path d="m96.131 75.523c.677-16.721-9.015-31.452-23.348-38.005v-22.518c0-8.284-6.716-15-15-15s-15 6.716-15 15v21.209c-14.939 5.309-25.905 19.265-26.586 36.076-.894 22.073 16.275 40.692 38.348 41.586s40.692-16.275 41.586-38.348z"/><path d="m271 382.468v-32.104c-4.836 1.06-9.851 1.635-15 1.635s-10.164-.575-15-1.635v32.12c-14.282-1.997-29.27 2.51-40.195 13.407-8.969 8.962-13.908 20.881-13.908 33.563s4.939 24.601 13.904 33.558l44.593 44.594c2.813 2.814 6.628 4.394 10.606 4.394s7.794-1.58 10.606-4.394l44.59-44.589c8.969-8.962 13.908-20.881 13.908-33.562 0-12.683-4.939-24.602-13.909-33.563-10.922-10.913-25.911-15.426-40.195-13.424z"/><circle cx="256" cy="282" r="40"/></g></svg>