<svg id="Layer_1" enable-background="new 0 0 512 512" height="512" viewBox="0 0 512 512" width="512" xmlns="http://www.w3.org/2000/svg" fill="#fff"><g><path d="m152.014 100v-33c0-1.657-1.343-3-3-3h-42c-1.657 0-3 1.343-3 3v66c0 1.657 1.343 3 3 3h9c19.882 0 36-16.118 36-36z"/><path d="m165.014 0h-37c-13.255 0-24 10.745-24 24v21c0 1.657 1.343 3 3 3h58c1.657 0 3-1.343 3-3v-42c0-1.657-1.344-3-3-3z"/><path d="m197.014 0h-10c-1.657 0-3 1.343-3 3v42c0 1.657 1.343 3 3 3h10c1.657 0 3-1.343 3-3v-42c0-1.657-1.344-3-3-3z"/><path d="m293.014 0h-74c-1.657 0-3 1.343-3 3v42c0 1.657 1.343 3 3 3h74c1.657 0 3-1.343 3-3v-42c0-1.657-1.344-3-3-3z"/><path d="m168.014 100c0 28.719-23.281 52-52 52h-10.309c-1.523 0-2.805 1.148-2.981 2.661-42.663 366.918-38.505 330.402-38.719 334.486-.659 12.574 8.948 22.853 21.539 22.853h78.73c10.57 0 19.78-7.15 22.4-17.38l61.183-238.599c.104-.406.157-.823.157-1.242v-187.779c0-1.657-1.343-3-3-3h-74c-1.657 0-3 1.343-3 3z"/><path d="m280.014 136v-69c0-1.657-1.343-3-3-3h-10c-1.657 0-3 1.343-3 3v88.585c0 1.492 1.581 2.471 2.908 1.79 7.764-3.977 13.092-12.067 13.092-21.375z"/><path d="m325.014 0h-10c-1.657 0-3 1.343-3 3v42c0 1.657 1.343 3 3 3h10c1.657 0 3-1.343 3-3v-42c0-1.657-1.344-3-3-3z"/><path d="m408.014 24c0-13.255-10.745-24-24-24h-37c-1.657 0-3 1.343-3 3v42c0 1.657 1.343 3 3 3h58c1.657 0 3-1.343 3-3z"/><path d="m396.014 136h9c1.657 0 3-1.343 3-3v-66c0-1.657-1.343-3-3-3h-42c-1.657 0-3 1.343-3 3v33c0 19.882 16.117 36 36 36z"/><path d="m447.854 486.21-38.552-331.556c-.176-1.513-1.457-2.654-2.98-2.654h-10.309c-28.719 0-52-23.281-52-52v-33c0-1.657-1.343-3-3-3h-42c-1.657 0-3 1.343-3 3v69c0 18.523-12.648 34.141-29.766 38.668-1.316.348-2.234 1.532-2.234 2.893v77.219c0 .419.053.836.157 1.242l61.183 238.599c2.62 10.23 11.83 17.38 22.4 17.38h77.14c14.004-.001 24.634-12.392 22.961-25.791z"/></g></svg>