<svg xmlns="http://www.w3.org/2000/svg" version="1.1" xmlns:xlink="http://www.w3.org/1999/xlink" xmlns:svgjs="http://svgjs.com/svgjs" width="512" height="512" x="0" y="0" viewBox="0 0 128 128" style="enable-background:new 0 0 512 512" xml:space="preserve" class=""><g><g xmlns="http://www.w3.org/2000/svg"><path d="m73.2 85c-.8 0-1.5.7-1.5 1.5v4.4c0 .4.2.8.4 1l5.3 5.3c.3.3.7.4 1 .4h7c.4 0 .8-.2 1-.4 2-2 3.4-3.4 5.3-5.3.3-.3.4-.7.4-1v-4.4c0-.8-.7-1.5-1.5-1.5z" fill="#ffffff" data-original="#000000"></path><path d="m86.8 53.6h-46.4c-.4 0-.7-.1-1-.4l-2.3-2.3v19.4c0 1.1.9 2 2 2h49c1.1 0 2-.9 2-2v-19.4l-2.3 2.3c-.3.2-.7.4-1 .4z" fill="#ffffff" data-original="#000000"></path><path d="m7.9 86.4v11.3h5.3c.4 0 .8-.2 1-.4 2-2 3.4-3.4 5.3-5.3.3-.3.4-.7.4-1v-4.4c0-.8-.7-1.5-1.5-1.5h-9.1c-.8-.1-1.4.5-1.4 1.3z" fill="#ffffff" data-original="#000000"></path><path d="m88.6 99.2c-.8.8-1.9 1.2-3 1.2h-7c-1.1 0-2.2-.5-3-1.2-1.4-1.4-2.6-2.5-3.8-3.8v20.2c0 .8.7 1.5 1.5 1.5h17.7c.8 0 1.5-.7 1.5-1.5v-20.2c-1.3 1.3-2.5 2.4-3.9 3.8z" fill="#ffffff" data-original="#000000"></path><path d="m86.2 50.8 3.9-3.9v-4.7c0-1.6-1.3-2.9-2.9-2.9h-47.2c-1.6 0-2.9 1.3-2.9 2.9v4.7l3.9 3.9z" fill="#ffffff" data-original="#000000"></path><path d="m20 115.6v-20.2c-1.3 1.3-2.4 2.4-3.8 3.8-.8.8-1.9 1.2-3 1.2h-5.3v15.2c0 .8.6 1.4 1.4 1.4h9.3c.8.1 1.4-.6 1.4-1.4z" fill="#ffffff" data-original="#000000"></path><path d="m120.1 115.7v-15.2h-5.4c-1.1 0-2.2-.4-3-1.2-1.4-1.4-2.5-2.5-3.8-3.8v20.2c0 .8.7 1.5 1.5 1.5h9.3c.8-.1 1.4-.8 1.4-1.5z" fill="#ffffff" data-original="#000000"></path><path d="m108 86.5v4.4c0 .4.2.8.4 1l5.3 5.3c.3.3.7.4 1 .4h5.3v-11.2c0-.8-.6-1.4-1.4-1.4h-9.3c-.7 0-1.3.7-1.3 1.5z" fill="#ffffff" data-original="#000000"></path><path d="m37 117.1h17.7c.8 0 1.5-.7 1.5-1.5v-20.2c-1.3 1.3-2.4 2.4-3.8 3.8-.8.8-1.9 1.2-3 1.2h-7c-1.1 0-2.2-.5-3-1.2l-3.8-3.8v20.2c0 .8.6 1.5 1.4 1.5z" fill="#ffffff" data-original="#000000"></path><path d="m41.3 97.2c.3.3.7.4 1 .4h7c.4 0 .8-.2 1-.4 2-2 3.4-3.4 5.4-5.3.3-.3.4-.7.4-1v-4.4c0-.8-.7-1.5-1.5-1.5h-17.6c-.8 0-1.5.7-1.5 1.5v4.4c0 .4.2.8.4 1z" fill="#ffffff" data-original="#000000"></path><path d="m15.5 128h96.2c2 0 3.6-1.6 3.6-3.6v-4.5h-5.9c-2.4 0-4.3-1.9-4.3-4.3 0-.1 0-.2 0-.3v.1c0-1 0-6.5 0-28.9 0-2.3 1.9-4.3 4.3-4.3h5.9v-24.9c0-1.2-.5-2.2-1.4-2.9-17.1-12.6-21.6-30.1-23.1-52.4-.1-1.1-1-2-2.1-2h-7.5c-1 0-1.9.7-2.1 1.8-1.9 10.7-8.4 18.2-15.6 18.2-7.3 0-13.7-7.5-15.6-18.2-.2-1-1-1.8-2.1-1.8h-7.5c-1.1 0-2 .9-2.1 2-2.1 30.9-10.7 43.3-23.1 52.5-.9.7-1.4 1.7-1.4 2.9v24.9h6.7c2.3 0 4.3 1.9 4.3 4.3v28.6.2.2c0 2.4-1.9 4.3-4.3 4.3h-6.7v4.5c.1 2 1.8 3.6 3.8 3.6zm79.7-41.5v29.1c0 2.4-1.9 4.3-4.3 4.3h-17.7c-2.4 0-4.3-1.9-4.3-4.3 0-7 0-21.7 0-29.1 0-2.3 1.9-4.3 4.3-4.3h17.7c2.4 0 4.3 1.9 4.3 4.3zm-60.9-43.8c0-.1 0-.1 0 0 0-.1 0-.1 0-.2 0-.1 0-.1 0-.2 0-3.1 2.5-5.7 5.7-5.7h47.1c3.1 0 5.7 2.5 5.7 5.7v27.6.1.1.1.2c0 2.6-2.1 4.8-4.8 4.8h-49c-2.6 0-4.8-2.1-4.8-4.8.1-20.3.1-26.2.1-27.7zm-1.5 72.9v-.1-.1s0-.1 0-.2c0-1.5 0-7.5 0-28.7 0-2.3 1.9-4.3 4.3-4.3h17.7c2.3 0 4.3 1.9 4.3 4.3v28.7.2.1c0 2.4-1.9 4.3-4.3 4.3h-17.8c-2.3 0-4.2-1.9-4.2-4.2z" fill="#ffffff" data-original="#000000"></path></g></g></svg>