<?xml version="1.0" encoding="iso-8859-1"?>
<!-- Generator: Adobe Illustrator 19.0.0, SVG Export Plug-In . SVG Version: 6.00 Build 0)  -->
<svg version="1.1" id="Layer_1" xmlns="http://www.w3.org/2000/svg" xmlns:xlink="http://www.w3.org/1999/xlink" x="0px" y="0px"
	 viewBox="0 0 512.175 512.175" style="enable-background:new 0 0 512.175 512.175;" xml:space="preserve" fill="#fff">
<g transform="translate(-1)">
	<g>
		<g>
			<path d="M77.978,227.451h68.267c4.71,0,8.533-3.823,8.533-8.533v-51.302c-39.552,29.295-60.74,30.268-70.357,27.785
				c-9.105-2.364-12.74-8.866-13.585-10.667c-0.367-2.21-0.845-4.548-1.391-6.912v41.097
				C69.444,223.629,73.267,227.451,77.978,227.451z"/>
			<path d="M371.453,277.776c9.481-2.167,17.562-7.902,22.733-16.137l7.467-13.696c-15.121-6.579-17.545-7.057-18.441-7.211
				c-2.825-1.015-13.005-6.775-26.914-15.002l0.512-0.512c3.337-3.337,3.337-8.738,0-12.066c-3.328-3.337-8.73-3.337-12.066,0
				l-3.558,3.55c-7.006-4.215-14.473-8.747-22.153-13.44l1.647-1.647c3.328-3.328,3.328-8.73,0-12.066
				c-3.337-3.328-8.738-3.328-12.066,0l-4.531,4.531c-5.615-3.464-11.23-6.929-16.725-10.342l1.451-1.451
				c3.336-3.337,3.336-8.738,0-12.066c-3.328-3.336-8.73-3.336-12.066,0l-4.241,4.241c-22.409-14.046-40.704-25.805-45.73-29.568
				c-19.866-14.942-50.79,6.238-54.793,9.122c-0.043,0.043-0.085,0.068-0.137,0.111v10.914l172.126,108.075
				C352.21,278.288,361.964,279.926,371.453,277.776z"/>
			<path d="M478.931,280.535l-3.934-1.493c-14.379-5.453-29.244-11.102-43.324-17.57c-5.385-2.483-10.155-4.659-14.396-6.571
				l-8.371,15.36c-7.859,12.552-19.721,20.966-33.655,24.149c-3.994,0.913-8.021,1.365-12.023,1.365
				c-9.941,0-19.703-2.79-28.331-8.209l-40.568-25.463l-59.221,59.213h-24.132l68.531-68.523l-11.383-7.151l-75.682,75.674h-24.132
				l84.984-84.983l-11.383-7.142l-92.134,92.126h-24.132L227.087,219.88l-55.245-34.688v33.724c0,14.123-11.477,25.6-25.6,25.6
				H77.975c-14.114,0-25.6-11.477-25.6-25.6v-65.562c-0.171-0.043-0.307-0.145-0.478-0.188
				c-12.237-2.893-21.743,9.813-23.151,11.827c-45.389,75.324-23.868,138.368-13.329,160.751c-3.473,3.123-5.709,7.612-5.709,12.638
				v17.058c0,9.412,7.663,17.067,17.067,17.067l432.956-0.009c0.188,0.009,1.152,0.068,2.714,0.068
				c7.023,0,25.907-1.178,38.622-13.013c7.97-7.424,12.049-17.399,12.109-29.653v-0.026v-0.026
				C513.175,307.133,500.375,288.701,478.931,280.535z M489.478,347.018c-10.086,9.446-28.459,8.465-29.193,8.431l-433.51-0.009
				v-17.058h0.444h101.956h42.667h42.667H494.88C493.804,341.796,492.012,344.654,489.478,347.018z"/>
		</g>
	</g>
</g>
<g>
</g>
<g>
</g>
<g>
</g>
<g>
</g>
<g>
</g>
<g>
</g>
<g>
</g>
<g>
</g>
<g>
</g>
<g>
</g>
<g>
</g>
<g>
</g>
<g>
</g>
<g>
</g>
<g>
</g>
</svg>
