<svg id="Capa_1" enable-background="new 0 0 511.911 511.911" height="512" viewBox="0 0 511.911 511.911" width="512" xmlns="http://www.w3.org/2000/svg" fill="#fff"><g><path d="m418.997 125.968c-2.607-3.486-6.592-5.654-10.928-5.962-4.424-.366-8.599 1.274-11.675 4.351l-30 30c-5.859 5.859-5.859 15.352 0 21.211s15.352 5.859 21.211 0l17.769-17.769 61.631 82.163h-181.093c-6.489 0-12.246 4.175-14.253 10.342-2.3 7.035-3.884 14.068-4.916 21.041-3.426-.842-6.987-1.382-10.743-1.382-3.785 0-7.375.544-10.827 1.401-1.033-6.978-2.618-14.019-4.92-21.059-2.007-6.167-7.764-10.342-14.253-10.342h-181.006l61.631-82.163 17.769 17.769c5.859 5.859 15.352 5.859 21.211 0s5.859-15.352 0-21.211l-30-30c-3.076-3.076-7.104-4.746-11.675-4.351-4.336.308-8.32 2.476-10.928 5.962 0 0-90.319 120.414-90.454 120.615-2.783 4.146-3.325 9.404-1.436 14.033 39.961 98.203 97.515 131.346 145.181 131.346 47.465 0 90.236-32.919 98.463-85.287 3.543-5.731 7.645-6.713 11.243-6.713 3.565 0 7.614.967 11.131 6.531 8.097 52.099 50.622 85.469 98.487 85.469 47.681 0 105.22-33.143 145.181-131.346 1.89-4.629 1.348-9.888-1.436-14.033-.12-.178-90.365-120.616-90.365-120.616z"/></g></svg>