<svg id="eGYSboUh1cA1" xmlns="http://www.w3.org/2000/svg" xmlns:xlink="http://www.w3.org/1999/xlink" viewBox="0 0 512.101 512.101" shape-rendering="geometricPrecision" text-rendering="geometricPrecision"><g id="eGYSboUh1cA2"><g id="eGYSboUh1cA3"><ellipse id="eGYSboUh1cA4" rx="156.93" ry="156.93" transform="matrix(1 0 0 1 261.416 266.021)" fill="rgb(30,30,30)" stroke="none" stroke-width="0"/><path id="eGYSboUh1cA5" d="M436.862,75.238C336.562,-25.063,175.572,-25.097,75.238,75.238C-25.063,175.538,-25.097,336.528,75.238,436.862C175.538,537.163,336.528,537.197,436.862,436.862C537.163,336.563,537.197,175.572,436.862,75.238ZM241.05,136.05C241.05,127.766,247.766,121.05,256.05,121.05C264.334,121.05,271.05,127.766,271.05,136.05L271.05,216.05C271.05,224.334,264.334,231.05,256.05,231.05C247.766,231.05,241.05,224.334,241.05,216.05ZM256.05,367.05C194.844,367.05,145.05,317.256,145.05,256.05C145.05,224.024,158.887,193.557,183.015,172.461C189.252,167.008,198.728,167.643,204.181,173.879C209.634,180.115,208.999,189.592,202.763,195.045C185.152,210.444,175.051,232.68,175.051,256.05C175.051,300.714,211.387,337.05,256.051,337.05C300.715,337.05,337.051,300.714,337.051,256.05C337.051,232.908,327.115,210.818,309.791,195.443C303.595,189.944,303.03,180.464,308.528,174.267C314.027,168.07,323.507,167.506,329.704,173.004C353.439,194.068,367.051,224.337,367.051,256.049C367.05,317.256,317.256,367.05,256.05,367.05Z" fill="rgb(255,255,255)" stroke="none" stroke-width="1"/></g></g></svg>