<svg width="103" height="30" viewBox="0 0 103 30" fill="none" xmlns="http://www.w3.org/2000/svg">
<path d="M1.39809 5.9851C1.39809 6.26019 1.46687 6.47568 1.60441 6.63157C1.75113 6.78745 1.98038 6.91583 2.29215 7.0167L6.41856 8.39217C6.8037 8.52055 7.11547 8.72687 7.35388 9.01113C7.60147 9.2954 7.72526 9.66219 7.72526 10.1115V10.7305C7.72526 11.4916 7.51436 12.083 7.09255 12.5048C6.67073 12.9266 6.07928 13.1375 5.31819 13.1375H2.70479C1.9437 13.1375 1.35224 12.9266 0.930434 12.5048C0.508622 12.083 0.297717 11.4916 0.297717 10.7305V10.3178C0.297717 10.1803 0.36649 10.1115 0.504038 10.1115H0.985452C1.123 10.1115 1.19177 10.1803 1.19177 10.3178V10.7305C1.19177 11.2165 1.32015 11.5924 1.57691 11.8584C1.84283 12.1151 2.21879 12.2435 2.70479 12.2435H5.31819C5.80419 12.2435 6.17556 12.1151 6.43232 11.8584C6.69824 11.5924 6.83121 11.2165 6.83121 10.7305V10.1803C6.83121 9.90519 6.75785 9.6897 6.61113 9.53381C6.47358 9.37793 6.24892 9.24955 5.93715 9.14868L1.81074 7.77321C1.4256 7.64483 1.10924 7.43851 0.86166 7.15425C0.623245 6.86998 0.504038 6.50319 0.504038 6.05387V5.64123C0.504038 4.88013 0.714943 4.28868 1.13675 3.86687C1.55857 3.44506 2.15002 3.23415 2.91111 3.23415H5.24941C6.01051 3.23415 6.60196 3.44506 7.02377 3.86687C7.44558 4.28868 7.65649 4.88013 7.65649 5.64123V6.05387C7.65649 6.19142 7.58771 6.26019 7.45017 6.26019H6.96875C6.83121 6.26019 6.76243 6.19142 6.76243 6.05387V5.64123C6.76243 5.15523 6.62947 4.78385 6.36355 4.5271C6.10679 4.26117 5.73541 4.12821 5.24941 4.12821H2.91111C2.42511 4.12821 2.04915 4.26117 1.78323 4.5271C1.52647 4.78385 1.39809 5.15523 1.39809 5.64123V5.9851ZM11.2354 7.63566H15.912C16.0495 7.63566 16.1183 7.70444 16.1183 7.84198V8.3234C16.1183 8.46094 16.0495 8.52972 15.912 8.52972H11.2354V12.1059H17.2875C17.425 12.1059 17.4938 12.1747 17.4938 12.3123V12.7937C17.4938 12.9312 17.425 13 17.2875 13H10.5477C10.4101 13 10.3413 12.9312 10.3413 12.7937V3.57802C10.3413 3.44047 10.4101 3.3717 10.5477 3.3717H17.1499C17.2875 3.3717 17.3562 3.44047 17.3562 3.57802V4.05944C17.3562 4.19698 17.2875 4.26576 17.1499 4.26576H11.2354V7.63566ZM20.3828 12.1059H26.1598C26.2973 12.1059 26.3661 12.1747 26.3661 12.3123V12.7937C26.3661 12.9312 26.2973 13 26.1598 13H19.6951C19.5575 13 19.4888 12.9312 19.4888 12.7937V3.57802C19.4888 3.44047 19.5575 3.3717 19.6951 3.3717H20.1765C20.314 3.3717 20.3828 3.44047 20.3828 3.57802V12.1059ZM28.9795 7.63566H33.6561C33.7937 7.63566 33.8624 7.70444 33.8624 7.84198V8.3234C33.8624 8.46094 33.7937 8.52972 33.6561 8.52972H28.9795V12.1059H35.0316C35.1691 12.1059 35.2379 12.1747 35.2379 12.3123V12.7937C35.2379 12.9312 35.1691 13 35.0316 13H28.2918C28.1542 13 28.0855 12.9312 28.0855 12.7937V3.57802C28.0855 3.44047 28.1542 3.3717 28.2918 3.3717H34.894C35.0316 3.3717 35.1004 3.44047 35.1004 3.57802V4.05944C35.1004 4.19698 35.0316 4.26576 34.894 4.26576H28.9795V7.63566ZM42.5284 15.2008C42.5284 15.5859 42.4138 15.8885 42.1846 16.1086C41.9553 16.3286 41.6344 16.4387 41.2218 16.4387H40.2589C40.1672 16.4387 40.1214 16.3928 40.1214 16.3011V15.8885C40.1214 15.7968 40.1672 15.7509 40.2589 15.7509H41.2218C41.4327 15.7509 41.5885 15.7005 41.6894 15.5996C41.7903 15.4988 41.8407 15.3658 41.8407 15.2008V15.132C41.8407 14.9669 41.7903 14.834 41.6894 14.7331C41.5885 14.6322 41.4327 14.5818 41.2218 14.5818H40.4652C40.3735 14.5818 40.3277 14.5359 40.3277 14.4442V14.0316C40.3277 13.9307 40.3414 13.8482 40.369 13.784C40.3965 13.729 40.4286 13.674 40.4652 13.619L40.7403 13.1375H39.5024C38.7413 13.1375 38.1499 12.9266 37.7281 12.5048C37.3062 12.083 37.0953 11.4916 37.0953 10.7305V5.64123C37.0953 4.88013 37.3062 4.28868 37.7281 3.86687C38.1499 3.44506 38.7413 3.23415 39.5024 3.23415H42.5972C43.3583 3.23415 43.9498 3.44506 44.3716 3.86687C44.7934 4.28868 45.0043 4.88013 45.0043 5.64123V6.05387C45.0043 6.19142 44.9355 6.26019 44.798 6.26019H44.3166C44.179 6.26019 44.1102 6.19142 44.1102 6.05387V5.64123C44.1102 5.15523 43.9773 4.78385 43.7114 4.5271C43.4546 4.26117 43.0832 4.12821 42.5972 4.12821H39.5024C39.0164 4.12821 38.6404 4.26117 38.3745 4.5271C38.1178 4.78385 37.9894 5.15523 37.9894 5.64123V10.7305C37.9894 11.2165 38.1178 11.5924 38.3745 11.8584C38.6404 12.1151 39.0164 12.2435 39.5024 12.2435H42.5972C43.0832 12.2435 43.4546 12.1151 43.7114 11.8584C43.9773 11.5924 44.1102 11.2165 44.1102 10.7305V10.3178C44.1102 10.1803 44.179 10.1115 44.3166 10.1115H44.798C44.9355 10.1115 45.0043 10.1803 45.0043 10.3178V10.7305C45.0043 11.4916 44.7934 12.083 44.3716 12.5048C43.9498 12.9266 43.3583 13.1375 42.5972 13.1375H41.2905L40.8779 13.8941H41.2218C41.6344 13.8941 41.9553 14.0041 42.1846 14.2242C42.4138 14.4442 42.5284 14.7468 42.5284 15.132V15.2008ZM52.8704 10.3178H48.4001L47.4373 12.7937C47.3823 12.9312 47.2906 13 47.1622 13H46.5432C46.3965 13 46.3506 12.9312 46.4057 12.7937L50.0507 3.57802C50.1057 3.44047 50.1974 3.3717 50.3258 3.3717H50.9447C51.0731 3.3717 51.1648 3.44047 51.2198 3.57802L54.8648 12.7937C54.9198 12.9312 54.874 13 54.7273 13H54.1083C53.9799 13 53.8882 12.9312 53.8332 12.7937L52.8704 10.3178ZM52.5265 9.42377L50.6696 4.47208H50.6009L48.744 9.42377H52.5265ZM51.4949 2.065C51.2565 2.065 51.0593 2.0054 50.9035 1.88619C50.7476 1.75781 50.61 1.62485 50.4908 1.4873C50.3808 1.34059 50.2799 1.20763 50.1882 1.08842C50.1057 0.96004 50.014 0.895852 49.9131 0.895852C49.6839 0.895852 49.5693 1.01047 49.5693 1.23972V1.92746C49.5693 2.01915 49.5234 2.065 49.4317 2.065H49.0191C48.9274 2.065 48.8815 2.01915 48.8815 1.92746V1.10217C48.8815 0.827078 48.9595 0.611588 49.1153 0.455701C49.2804 0.290644 49.5005 0.208116 49.7756 0.208116C50.014 0.208116 50.2111 0.272305 50.367 0.400682C50.5229 0.51989 50.6559 0.652852 50.7659 0.799569C50.8851 0.937116 50.986 1.07008 51.0685 1.19846C51.1602 1.31766 51.2565 1.37727 51.3574 1.37727C51.5866 1.37727 51.7012 1.26264 51.7012 1.0334V0.345664C51.7012 0.253965 51.7471 0.208116 51.8388 0.208116H52.2514C52.3431 0.208116 52.389 0.253965 52.389 0.345664V1.17095C52.389 1.44604 52.3064 1.66612 52.1414 1.83117C51.9855 1.98706 51.77 2.065 51.4949 2.065ZM63.3636 5.64123C63.3636 5.15523 63.2307 4.78385 62.9647 4.5271C62.708 4.26117 62.3366 4.12821 61.8506 4.12821H58.5495C58.0635 4.12821 57.6875 4.26117 57.4216 4.5271C57.1648 4.78385 57.0364 5.15523 57.0364 5.64123V10.7305C57.0364 11.2165 57.1648 11.5924 57.4216 11.8584C57.6875 12.1151 58.0635 12.2435 58.5495 12.2435H61.8506C62.3366 12.2435 62.708 12.1151 62.9647 11.8584C63.2307 11.5924 63.3636 11.2165 63.3636 10.7305V5.64123ZM64.2577 10.7305C64.2577 11.4916 64.0468 12.083 63.625 12.5048C63.2031 12.9266 62.6117 13.1375 61.8506 13.1375H58.5495C57.7884 13.1375 57.1969 12.9266 56.7751 12.5048C56.3533 12.083 56.1424 11.4916 56.1424 10.7305V5.64123C56.1424 4.88013 56.3533 4.28868 56.7751 3.86687C57.1969 3.44506 57.7884 3.23415 58.5495 3.23415H61.8506C62.6117 3.23415 63.2031 3.44506 63.625 3.86687C64.0468 4.28868 64.2577 4.88013 64.2577 5.64123V10.7305ZM77.4703 10.5929C77.4703 11.354 77.2594 11.9455 76.8375 12.3673C76.4157 12.7891 75.8243 13 75.0632 13H69.9052C69.7676 13 69.6988 12.9312 69.6988 12.7937V3.57802C69.6988 3.44047 69.7676 3.3717 69.9052 3.3717H75.0632C75.8243 3.3717 76.4157 3.58261 76.8375 4.00442C77.2594 4.42623 77.4703 5.01768 77.4703 5.77878V10.5929ZM70.5929 12.1059H75.0632C75.5492 12.1059 75.9206 11.9776 76.1773 11.7208C76.4432 11.4549 76.5762 11.0789 76.5762 10.5929V5.77878C76.5762 5.29278 76.4432 4.9214 76.1773 4.66464C75.9206 4.39872 75.5492 4.26576 75.0632 4.26576H70.5929V12.1059ZM81.1104 7.63566H85.787C85.9246 7.63566 85.9933 7.70444 85.9933 7.84198V8.3234C85.9933 8.46094 85.9246 8.52972 85.787 8.52972H81.1104V12.1059H87.1625C87.3 12.1059 87.3688 12.1747 87.3688 12.3123V12.7937C87.3688 12.9312 87.3 13 87.1625 13H80.4227C80.2851 13 80.2164 12.9312 80.2164 12.7937V3.57802C80.2164 3.44047 80.2851 3.3717 80.4227 3.3717H87.0249C87.1625 3.3717 87.2313 3.44047 87.2313 3.57802V4.05944C87.2313 4.19698 87.1625 4.26576 87.0249 4.26576H81.1104V7.63566Z" fill="white"/>
<path d="M0.504038 20.5752C0.504038 20.3459 0.61866 20.2313 0.847905 20.2313H6.0747C7.72526 20.2313 8.55054 21.0566 8.55054 22.7072V24.4953C8.55054 26.1458 7.72526 26.9711 6.0747 26.9711H2.22338V29.5158C2.22338 29.745 2.10875 29.8596 1.87951 29.8596H0.847905C0.61866 29.8596 0.504038 29.745 0.504038 29.5158V20.5752ZM2.22338 21.8131V25.3893H5.86838C6.51026 25.3893 6.83121 25.0684 6.83121 24.4265V22.7759C6.83121 22.1341 6.51026 21.8131 5.86838 21.8131H2.22338ZM12.3379 24.1514H16.6019C16.8311 24.1514 16.9458 24.266 16.9458 24.4953V25.3893C16.9458 25.6186 16.8311 25.7332 16.6019 25.7332H12.3379V28.2778H17.9774C18.2066 28.2778 18.3212 28.3924 18.3212 28.6217V29.5158C18.3212 29.745 18.2066 29.8596 17.9774 29.8596H10.9625C10.7332 29.8596 10.6186 29.745 10.6186 29.5158V20.5752C10.6186 20.3459 10.7332 20.2313 10.9625 20.2313H17.8398C18.0691 20.2313 18.1837 20.3459 18.1837 20.5752V21.4692C18.1837 21.6985 18.0691 21.8131 17.8398 21.8131H12.3379V24.1514ZM19.9675 20.5752C19.9675 20.3459 20.0821 20.2313 20.3114 20.2313H25.4694C27.1199 20.2313 27.9452 21.0566 27.9452 22.7072V24.2202C27.9452 24.7429 27.8627 25.1555 27.6976 25.4581C27.5418 25.7607 27.3721 25.9945 27.1887 26.1596C26.9595 26.3522 26.7073 26.4851 26.4322 26.5585L28.0828 29.5158C28.1195 29.5891 28.1286 29.6671 28.1103 29.7496C28.0919 29.8229 28.014 29.8596 27.8765 29.8596H26.7073C26.5698 29.8596 26.4551 29.8275 26.3634 29.7633C26.2809 29.6991 26.2121 29.6166 26.1571 29.5158L24.6441 26.696H21.6868V29.5158C21.6868 29.745 21.5722 29.8596 21.343 29.8596H20.3114C20.0821 29.8596 19.9675 29.745 19.9675 29.5158V20.5752ZM21.6868 21.8131V25.1142H25.2631C25.9049 25.1142 26.2259 24.7933 26.2259 24.1514V22.7759C26.2259 22.1341 25.9049 21.8131 25.2631 21.8131H21.6868ZM37.8234 27.5213C37.8234 29.1719 36.9981 29.9972 35.3475 29.9972H32.2527C30.6021 29.9972 29.7769 29.1719 29.7769 27.5213V27.0399C29.7769 26.8107 29.8915 26.696 30.1207 26.696H31.1523C31.3816 26.696 31.4962 26.8107 31.4962 27.0399V27.4525C31.4962 28.0944 31.8171 28.4154 32.459 28.4154H35.1412C35.7831 28.4154 36.104 28.0944 36.104 27.4525V27.1087C36.104 26.8978 36.0398 26.7235 35.9115 26.586C35.7923 26.4485 35.6272 26.3476 35.4163 26.2834L31.4962 25.0455C31.0469 24.9079 30.6801 24.6833 30.3958 24.3715C30.1207 24.0597 29.9832 23.6425 29.9832 23.1198V22.5696C29.9832 20.9191 30.8085 20.0938 32.459 20.0938H35.21C36.8605 20.0938 37.6858 20.9191 37.6858 22.5696V23.051C37.6858 23.2803 37.5712 23.3949 37.342 23.3949H36.3103C36.0811 23.3949 35.9665 23.2803 35.9665 23.051V22.6384C35.9665 21.9965 35.6455 21.6756 35.0037 21.6756H32.6654C32.0235 21.6756 31.7025 21.9965 31.7025 22.6384V22.8447C31.7025 23.0556 31.7621 23.2298 31.8813 23.3674C32.0097 23.4958 32.1794 23.5966 32.3903 23.67L36.3103 24.9079C36.7597 25.0546 37.1219 25.2839 37.397 25.5957C37.6812 25.8983 37.8234 26.3109 37.8234 26.8336V27.5213ZM42.226 29.9972C40.5754 29.9972 39.7501 29.1719 39.7501 27.5213V22.5696C39.7501 20.9191 40.5754 20.0938 42.226 20.0938H45.9397C47.5903 20.0938 48.4156 20.9191 48.4156 22.5696V27.5213C48.4156 29.1719 47.5903 29.9972 45.9397 29.9972H42.226ZM45.7334 28.4154C46.3753 28.4154 46.6962 28.0944 46.6962 27.4525V22.6384C46.6962 21.9965 46.3753 21.6756 45.7334 21.6756H42.4323C41.7904 21.6756 41.4694 21.9965 41.4694 22.6384V27.4525C41.4694 28.0944 41.7904 28.4154 42.4323 28.4154H45.7334ZM57.4254 27.2462V20.5752C57.4254 20.3459 57.5401 20.2313 57.7693 20.2313H58.8009C59.0302 20.2313 59.1448 20.3459 59.1448 20.5752V29.5158C59.1448 29.745 59.0302 29.8596 58.8009 29.8596H57.4254C57.2879 29.8596 57.1779 29.8275 57.0953 29.7633C57.022 29.6991 56.9486 29.6166 56.8753 29.5158L52.5425 22.8447H52.4738V29.5158C52.4738 29.745 52.3591 29.8596 52.1299 29.8596H51.0983C50.869 29.8596 50.7544 29.745 50.7544 29.5158V20.5752C50.7544 20.3459 50.869 20.2313 51.0983 20.2313H52.4738C52.6113 20.2313 52.7168 20.2634 52.7901 20.3276C52.8726 20.3918 52.9506 20.4743 53.0239 20.5752L57.3567 27.2462H57.4254ZM67.1643 27.5901H63.1755L62.4877 29.5158C62.4144 29.745 62.2768 29.8596 62.0751 29.8596H60.7684C60.5391 29.8596 60.4704 29.745 60.5621 29.5158L64.0007 20.5752C64.0924 20.3459 64.23 20.2313 64.4134 20.2313H65.9264C66.1098 20.2313 66.2473 20.3459 66.339 20.5752L69.7777 29.5158C69.8694 29.745 69.8006 29.8596 69.5714 29.8596H68.2647C68.063 29.8596 67.9254 29.745 67.8521 29.5158L67.1643 27.5901ZM66.6141 26.0083L65.1974 22.2258H65.1424L63.7256 26.0083H66.6141ZM79.2514 23.051C79.2514 23.2803 79.1368 23.3949 78.9075 23.3949H77.8759C77.6467 23.3949 77.532 23.2803 77.532 23.051V22.6384C77.532 21.9965 77.2111 21.6756 76.5692 21.6756H73.4744C72.8325 21.6756 72.5116 21.9965 72.5116 22.6384V27.4525C72.5116 28.0944 72.8325 28.4154 73.4744 28.4154H76.5692C77.2111 28.4154 77.532 28.0944 77.532 27.4525V26.2146H75.6752C75.4459 26.2146 75.3313 26.1 75.3313 25.8708V24.9767C75.3313 24.7475 75.4459 24.6328 75.6752 24.6328H78.9075C79.1368 24.6328 79.2514 24.7475 79.2514 24.9767V27.5213C79.2514 29.1719 78.4261 29.9972 76.7755 29.9972H73.2681C71.6175 29.9972 70.7922 29.1719 70.7922 27.5213V22.5696C70.7922 20.9191 71.6175 20.0938 73.2681 20.0938H76.7755C78.4261 20.0938 79.2514 20.9191 79.2514 22.5696V23.051ZM83.3144 24.1514H87.5784C87.8076 24.1514 87.9222 24.266 87.9222 24.4953V25.3893C87.9222 25.6186 87.8076 25.7332 87.5784 25.7332H83.3144V28.2778H88.9538C89.1831 28.2778 89.2977 28.3924 89.2977 28.6217V29.5158C89.2977 29.745 89.1831 29.8596 88.9538 29.8596H81.9389C81.7097 29.8596 81.5951 29.745 81.5951 29.5158V20.5752C81.5951 20.3459 81.7097 20.2313 81.9389 20.2313H88.8163C89.0455 20.2313 89.1601 20.3459 89.1601 20.5752V21.4692C89.1601 21.6985 89.0455 21.8131 88.8163 21.8131H83.3144V24.1514ZM96.102 29.8596C95.9644 29.8596 95.859 29.8275 95.7856 29.7633C95.7214 29.6991 95.6664 29.6166 95.6206 29.5158L92.7321 23.3261H92.6633V29.5158C92.6633 29.745 92.5487 29.8596 92.3194 29.8596H91.2878C91.0586 29.8596 90.944 29.745 90.944 29.5158V20.5752C90.944 20.3459 91.0586 20.2313 91.2878 20.2313H92.7321C92.8696 20.2313 92.9705 20.2634 93.0347 20.3276C93.108 20.3918 93.1676 20.4743 93.2135 20.5752L96.4458 27.4525H96.5146L99.747 20.5752C99.7928 20.4743 99.8478 20.3918 99.912 20.3276C99.9854 20.2634 100.091 20.2313 100.228 20.2313H101.673C101.902 20.2313 102.017 20.3459 102.017 20.5752V29.5158C102.017 29.745 101.902 29.8596 101.673 29.8596H100.641C100.412 29.8596 100.297 29.745 100.297 29.5158V23.3261H100.228L97.3399 29.5158C97.2941 29.6166 97.2345 29.6991 97.1611 29.7633C97.0969 29.8275 96.996 29.8596 96.8585 29.8596H96.102Z" fill="white"/>
</svg>
